2024-08-19 09:24:44,282 INFO:开始处理：F:\演唱会已处理\15号\电影\不老山异事-2022_HD国语中字.mp4
2024-08-19 09:24:44,284 INFO:开始处理：F:\演唱会已处理\15号\电影\大虫灾-2022_HD国语中字.mp4
2024-08-19 09:25:25,877 INFO:成功处理 F:\演唱会已处理\15号\电影\不老山异事-2022_HD国语中字.mp4 的片段 0.0 - 963.1833333333333
2024-08-19 09:25:26,440 INFO:成功处理 F:\演唱会已处理\15号\电影\大虫灾-2022_HD国语中字.mp4 的片段 0.0 - 969.625
2024-08-19 09:25:51,836 INFO:成功处理 F:\演唱会已处理\15号\电影\不老山异事-2022_HD国语中字.mp4 的片段 963.1833333333333 - 1926.3666666666666
2024-08-19 09:25:52,892 INFO:成功处理 F:\演唱会已处理\15号\电影\大虫灾-2022_HD国语中字.mp4 的片段 969.625 - 1939.25
2024-08-19 09:26:18,335 INFO:成功处理 F:\演唱会已处理\15号\电影\不老山异事-2022_HD国语中字.mp4 的片段 1926.3666666666666 - 2889.5499999999997
2024-08-19 09:26:22,425 INFO:成功处理 F:\演唱会已处理\15号\电影\大虫灾-2022_HD国语中字.mp4 的片段 1939.25 - 2908.875
2024-08-19 09:27:13,350 INFO:成功处理 F:\演唱会已处理\15号\电影\不老山异事-2022_HD国语中字.mp4 的片段 2889.5499999999997 - 3852.733333333333
2024-08-19 09:27:13,350 INFO:F:\演唱会已处理\15号\电影\不老山异事-2022_HD国语中字.mp4 的处理已完成，耗时 149.07 秒
2024-08-19 09:27:15,495 INFO:成功处理 F:\演唱会已处理\15号\电影\大虫灾-2022_HD国语中字.mp4 的片段 2908.875 - 3878.5
2024-08-19 09:27:15,495 INFO:F:\演唱会已处理\15号\电影\大虫灾-2022_HD国语中字.mp4 的处理已完成，耗时 151.21 秒
2024-08-19 09:27:15,495 INFO:开始处理：F:\演唱会已处理\15号\电影\美人鱼-2021_HD国语中字.mp4
2024-08-19 09:27:15,495 INFO:开始处理：F:\演唱会已处理\15号\电影\谜案追凶-2023_HD国语中字.mp4
2024-08-19 09:27:57,044 INFO:成功处理 F:\演唱会已处理\15号\电影\美人鱼-2021_HD国语中字.mp4 的片段 0.0 - 990.7916666666666
2024-08-19 09:27:58,708 INFO:成功处理 F:\演唱会已处理\15号\电影\谜案追凶-2023_HD国语中字.mp4 的片段 0.0 - 1029.0083333333334
2024-08-19 09:28:41,848 INFO:成功处理 F:\演唱会已处理\15号\电影\美人鱼-2021_HD国语中字.mp4 的片段 990.7916666666666 - 1981.5833333333333
2024-08-19 09:28:46,573 INFO:成功处理 F:\演唱会已处理\15号\电影\谜案追凶-2023_HD国语中字.mp4 的片段 1029.0083333333334 - 2058.016666666667
2024-08-19 09:29:32,681 INFO:成功处理 F:\演唱会已处理\15号\电影\美人鱼-2021_HD国语中字.mp4 的片段 1981.5833333333333 - 2972.375
2024-08-19 09:29:38,567 INFO:成功处理 F:\演唱会已处理\15号\电影\谜案追凶-2023_HD国语中字.mp4 的片段 2058.016666666667 - 3087.0250000000005
2024-08-19 09:30:32,127 INFO:成功处理 F:\演唱会已处理\15号\电影\美人鱼-2021_HD国语中字.mp4 的片段 2972.375 - 3963.1666666666665
2024-08-19 09:30:32,127 INFO:F:\演唱会已处理\15号\电影\美人鱼-2021_HD国语中字.mp4 的处理已完成，耗时 196.63 秒
2024-08-19 09:30:37,032 INFO:成功处理 F:\演唱会已处理\15号\电影\谜案追凶-2023_HD国语中字.mp4 的片段 3087.0250000000005 - 4116.033333333334
2024-08-19 09:30:37,032 INFO:F:\演唱会已处理\15号\电影\谜案追凶-2023_HD国语中字.mp4 的处理已完成，耗时 201.54 秒
2024-08-19 09:30:37,032 INFO:开始处理：F:\演唱会已处理\15号\电影\魔道象人-2023_HD国语中字.mp4
2024-08-19 09:30:51,436 INFO:成功处理 F:\演唱会已处理\15号\电影\魔道象人-2023_HD国语中字.mp4 的片段 0.0 - 996.35
2024-08-19 09:30:55,272 INFO:成功处理 F:\演唱会已处理\15号\电影\魔道象人-2023_HD国语中字.mp4 的片段 996.35 - 1992.7
2024-08-19 09:30:57,316 INFO:成功处理 F:\演唱会已处理\15号\电影\魔道象人-2023_HD国语中字.mp4 的片段 1992.7 - 2989.05
2024-08-19 09:30:59,281 INFO:成功处理 F:\演唱会已处理\15号\电影\魔道象人-2023_HD国语中字.mp4 的片段 2989.05 - 3985.4
2024-08-19 09:30:59,281 INFO:F:\演唱会已处理\15号\电影\魔道象人-2023_HD国语中字.mp4 的处理已完成，耗时 22.25 秒
2024-08-19 09:30:59,281 INFO:所有视频文件处理完成，总耗时 375.00 秒
2024-08-19 09:43:58,611 INFO:开始处理：F:\演唱会已处理\16\2020江苏卫视跨年.mp4
2024-08-19 09:43:58,611 INFO:开始处理：F:\演唱会已处理\16\2020浙江卫视跨年.mp4
2024-08-19 09:50:45,341 INFO:成功处理 F:\演唱会已处理\16\2020江苏卫视跨年.mp4 的片段 0.0 - 3551.991666666667
2024-08-19 09:52:16,475 INFO:成功处理 F:\演唱会已处理\16\2020浙江卫视跨年.mp4 的片段 0.0 - 4247.341666666666
2024-08-19 09:57:07,223 INFO:成功处理 F:\演唱会已处理\16\2020江苏卫视跨年.mp4 的片段 3551.991666666667 - 7103.983333333334
2024-08-19 09:59:42,799 INFO:成功处理 F:\演唱会已处理\16\2020浙江卫视跨年.mp4 的片段 4247.341666666666 - 8494.683333333332
2024-08-19 10:02:10,108 INFO:成功处理 F:\演唱会已处理\16\2020江苏卫视跨年.mp4 的片段 7103.983333333334 - 10655.975
2024-08-19 10:05:00,649 INFO:成功处理 F:\演唱会已处理\16\2020浙江卫视跨年.mp4 的片段 8494.683333333332 - 12742.024999999998
2024-08-19 10:06:07,597 INFO:成功处理 F:\演唱会已处理\16\2020江苏卫视跨年.mp4 的片段 10655.975 - 14207.966666666667
2024-08-19 10:06:07,597 INFO:F:\演唱会已处理\16\2020江苏卫视跨年.mp4 的处理已完成，耗时 1328.98 秒
2024-08-19 10:08:10,406 INFO:成功处理 F:\演唱会已处理\16\2020浙江卫视跨年.mp4 的片段 12742.024999999998 - 16989.366666666665
2024-08-19 10:08:10,406 INFO:F:\演唱会已处理\16\2020浙江卫视跨年.mp4 的处理已完成，耗时 1451.79 秒
2024-08-19 10:08:10,407 INFO:开始处理：F:\演唱会已处理\16\[Lady Gaga] .mp4
2024-08-19 10:08:10,408 INFO:开始处理：F:\演唱会已处理\16\[Linkin Park] - (2014 .mp4
2024-08-19 10:08:10,933 ERROR:处理 F:\演唱会已处理\16\[Lady Gaga] .mp4 的片段 0.0 - 1667.075 时出错: ffmpeg version 7.0.1-essentials_build-www.gyan.dev Copyright (c) 2000-2024 the FFmpeg developers
  built with gcc 13.2.0 (Rev5, Built by MSYS2 project)
  configuration: --enable-gpl --enable-version3 --enable-static --disable-w32threads --disable-autodetect --enable-fontconfig --enable-iconv --enable-gnutls --enable-libxml2 --enable-gmp --enable-bzlib --enable-lzma --enable-zlib --enable-libsrt --enable-libssh --enable-libzmq --enable-avisynth --enable-sdl2 --enable-libwebp --enable-libx264 --enable-libx265 --enable-libxvid --enable-libaom --enable-libopenjpeg --enable-libvpx --enable-mediafoundation --enable-libass --enable-libfreetype --enable-libfribidi --enable-libharfbuzz --enable-libvidstab --enable-libvmaf --enable-libzimg --enable-amf --enable-cuda-llvm --enable-cuvid --enable-dxva2 --enable-d3d11va --enable-d3d12va --enable-ffnvcodec --enable-libvpl --enable-nvdec --enable-nvenc --enable-vaapi --enable-libgme --enable-libopenmpt --enable-libopencore-amrwb --enable-libmp3lame --enable-libtheora --enable-libvo-amrwbenc --enable-libgsm --enable-libopencore-amrnb --enable-libopus --enable-libspeex --enable-libvorbis --enable-librubberband
  libavutil      59.  8.100 / 59.  8.100
  libavcodec     61.  3.100 / 61.  3.100
  libavformat    61.  1.100 / 61.  1.100
  libavdevice    61.  1.100 / 61.  1.100
  libavfilter    10.  1.100 / 10.  1.100
  libswscale      8.  1.100 /  8.  1.100
  libswresample   5.  1.100 /  5.  1.100
  libpostproc    58.  1.100 / 58.  1.100
[mov,mp4,m4a,3gp,3g2,mj2 @ 000001e285732d40] Unknown cover type: 0x1.
Input #0, mov,mp4,m4a,3gp,3g2,mj2, from 'F:\演唱会已处理\16\[Lady Gaga] .mp4':
  Metadata:
    major_brand     : isom
    minor_version   : 512
    compatible_brands: isomiso2avc1mp41
    creation_time   : 2024-08-16T04:43:42.000000Z
    Hw              : 0
    bitrate         : 12000000
    maxrate         : 0
    te_is_reencode  : 1
    encoder         : Lavf58.76.100
  Duration: 01:51:08.32, start: 0.000000, bitrate: 11854 kb/s
  Stream #0:0[0x1](und): Video: h264 (Main) (avc1 / 0x31637661), yuv420p(tv, bt709, progressive), 1920x1080, 11656 kb/s, 30 fps, 30 tbr, 15360 tbn (default)
      Metadata:
        creation_time   : 2024-08-16T04:43:42.000000Z
        handler_name    : VideoHandler
        vendor_id       : [0][0][0][0]
  Stream #0:1[0x2](und): Audio: aac (LC) (mp4a / 0x6134706D), 44100 Hz, stereo, fltp, 193 kb/s (default)
      Metadata:
        creation_time   : 2024-08-16T04:43:42.000000Z
        handler_name    : SoundHandler
        vendor_id       : [0][0][0][0]
[out#0/mp4 @ 000001e285c30bc0] Error opening output F:\切片\四分之一\16\.\[Lady Gaga] \[Lady Gaga] _segment_1.mp4: No such file or directory
Error opening output file F:\切片\四分之一\16\.\[Lady Gaga] \[Lady Gaga] _segment_1.mp4.
Error opening output files: No such file or directory

2024-08-19 10:08:11,100 ERROR:处理 F:\演唱会已处理\16\[Linkin Park] - (2014 .mp4 的片段 0.0 - 1421.9916666666666 时出错: ffmpeg version 7.0.1-essentials_build-www.gyan.dev Copyright (c) 2000-2024 the FFmpeg developers
  built with gcc 13.2.0 (Rev5, Built by MSYS2 project)
  configuration: --enable-gpl --enable-version3 --enable-static --disable-w32threads --disable-autodetect --enable-fontconfig --enable-iconv --enable-gnutls --enable-libxml2 --enable-gmp --enable-bzlib --enable-lzma --enable-zlib --enable-libsrt --enable-libssh --enable-libzmq --enable-avisynth --enable-sdl2 --enable-libwebp --enable-libx264 --enable-libx265 --enable-libxvid --enable-libaom --enable-libopenjpeg --enable-libvpx --enable-mediafoundation --enable-libass --enable-libfreetype --enable-libfribidi --enable-libharfbuzz --enable-libvidstab --enable-libvmaf --enable-libzimg --enable-amf --enable-cuda-llvm --enable-cuvid --enable-dxva2 --enable-d3d11va --enable-d3d12va --enable-ffnvcodec --enable-libvpl --enable-nvdec --enable-nvenc --enable-vaapi --enable-libgme --enable-libopenmpt --enable-libopencore-amrwb --enable-libmp3lame --enable-libtheora --enable-libvo-amrwbenc --enable-libgsm --enable-libopencore-amrnb --enable-libopus --enable-libspeex --enable-libvorbis --enable-librubberband
  libavutil      59.  8.100 / 59.  8.100
  libavcodec     61.  3.100 / 61.  3.100
  libavformat    61.  1.100 / 61.  1.100
  libavdevice    61.  1.100 / 61.  1.100
  libavfilter    10.  1.100 / 10.  1.100
  libswscale      8.  1.100 /  8.  1.100
  libswresample   5.  1.100 /  5.  1.100
  libpostproc    58.  1.100 / 58.  1.100
[mov,mp4,m4a,3gp,3g2,mj2 @ 000001b84744edc0] Unknown cover type: 0x1.
Input #0, mov,mp4,m4a,3gp,3g2,mj2, from 'F:\演唱会已处理\16\[Linkin Park] - (2014 .mp4':
  Metadata:
    major_brand     : isom
    minor_version   : 512
    compatible_brands: isomiso2avc1mp41
    creation_time   : 2024-08-16T05:43:58.000000Z
    Hw              : 0
    bitrate         : 12000000
    maxrate         : 0
    te_is_reencode  : 1
    encoder         : Lavf58.76.100
  Duration: 01:34:47.97, start: 0.000000, bitrate: 10066 kb/s
  Stream #0:0[0x1](und): Video: h264 (Main) (avc1 / 0x31637661), yuv420p(tv, bt709, progressive), 1920x1080, 9869 kb/s, 30 fps, 30 tbr, 15360 tbn (default)
      Metadata:
        creation_time   : 2024-08-16T05:43:58.000000Z
        handler_name    : VideoHandler
        vendor_id       : [0][0][0][0]
  Stream #0:1[0x2](und): Audio: aac (LC) (mp4a / 0x6134706D), 44100 Hz, stereo, fltp, 193 kb/s (default)
      Metadata:
        creation_time   : 2024-08-16T05:43:58.000000Z
        handler_name    : SoundHandler
        vendor_id       : [0][0][0][0]
[out#0/mp4 @ 000001b84751ee80] Error opening output F:\切片\四分之一\16\.\[Linkin Park] - (2014 \[Linkin Park] - (2014 _segment_1.mp4: No such file or directory
Error opening output file F:\切片\四分之一\16\.\[Linkin Park] - (2014 \[Linkin Park] - (2014 _segment_1.mp4.
Error opening output files: No such file or directory

2024-08-19 10:08:11,239 ERROR:处理 F:\演唱会已处理\16\[Lady Gaga] .mp4 的片段 1667.075 - 3334.15 时出错: ffmpeg version 7.0.1-essentials_build-www.gyan.dev Copyright (c) 2000-2024 the FFmpeg developers
  built with gcc 13.2.0 (Rev5, Built by MSYS2 project)
  configuration: --enable-gpl --enable-version3 --enable-static --disable-w32threads --disable-autodetect --enable-fontconfig --enable-iconv --enable-gnutls --enable-libxml2 --enable-gmp --enable-bzlib --enable-lzma --enable-zlib --enable-libsrt --enable-libssh --enable-libzmq --enable-avisynth --enable-sdl2 --enable-libwebp --enable-libx264 --enable-libx265 --enable-libxvid --enable-libaom --enable-libopenjpeg --enable-libvpx --enable-mediafoundation --enable-libass --enable-libfreetype --enable-libfribidi --enable-libharfbuzz --enable-libvidstab --enable-libvmaf --enable-libzimg --enable-amf --enable-cuda-llvm --enable-cuvid --enable-dxva2 --enable-d3d11va --enable-d3d12va --enable-ffnvcodec --enable-libvpl --enable-nvdec --enable-nvenc --enable-vaapi --enable-libgme --enable-libopenmpt --enable-libopencore-amrwb --enable-libmp3lame --enable-libtheora --enable-libvo-amrwbenc --enable-libgsm --enable-libopencore-amrnb --enable-libopus --enable-libspeex --enable-libvorbis --enable-librubberband
  libavutil      59.  8.100 / 59.  8.100
  libavcodec     61.  3.100 / 61.  3.100
  libavformat    61.  1.100 / 61.  1.100
  libavdevice    61.  1.100 / 61.  1.100
  libavfilter    10.  1.100 / 10.  1.100
  libswscale      8.  1.100 /  8.  1.100
  libswresample   5.  1.100 /  5.  1.100
  libpostproc    58.  1.100 / 58.  1.100
[mov,mp4,m4a,3gp,3g2,mj2 @ 000001c2aa9e2d40] Unknown cover type: 0x1.
Input #0, mov,mp4,m4a,3gp,3g2,mj2, from 'F:\演唱会已处理\16\[Lady Gaga] .mp4':
  Metadata:
    major_brand     : isom
    minor_version   : 512
    compatible_brands: isomiso2avc1mp41
    creation_time   : 2024-08-16T04:43:42.000000Z
    Hw              : 0
    bitrate         : 12000000
    maxrate         : 0
    te_is_reencode  : 1
    encoder         : Lavf58.76.100
  Duration: 01:51:08.32, start: 0.000000, bitrate: 11854 kb/s
  Stream #0:0[0x1](und): Video: h264 (Main) (avc1 / 0x31637661), yuv420p(tv, bt709, progressive), 1920x1080, 11656 kb/s, 30 fps, 30 tbr, 15360 tbn (default)
      Metadata:
        creation_time   : 2024-08-16T04:43:42.000000Z
        handler_name    : VideoHandler
        vendor_id       : [0][0][0][0]
  Stream #0:1[0x2](und): Audio: aac (LC) (mp4a / 0x6134706D), 44100 Hz, stereo, fltp, 193 kb/s (default)
      Metadata:
        creation_time   : 2024-08-16T04:43:42.000000Z
        handler_name    : SoundHandler
        vendor_id       : [0][0][0][0]
[out#0/mp4 @ 000001c2aaab0bc0] Error opening output F:\切片\四分之一\16\.\[Lady Gaga] \[Lady Gaga] _segment_2.mp4: No such file or directory
Error opening output file F:\切片\四分之一\16\.\[Lady Gaga] \[Lady Gaga] _segment_2.mp4.
Error opening output files: No such file or directory

2024-08-19 10:08:11,356 ERROR:处理 F:\演唱会已处理\16\[Linkin Park] - (2014 .mp4 的片段 1421.9916666666666 - 2843.983333333333 时出错: ffmpeg version 7.0.1-essentials_build-www.gyan.dev Copyright (c) 2000-2024 the FFmpeg developers
  built with gcc 13.2.0 (Rev5, Built by MSYS2 project)
  configuration: --enable-gpl --enable-version3 --enable-static --disable-w32threads --disable-autodetect --enable-fontconfig --enable-iconv --enable-gnutls --enable-libxml2 --enable-gmp --enable-bzlib --enable-lzma --enable-zlib --enable-libsrt --enable-libssh --enable-libzmq --enable-avisynth --enable-sdl2 --enable-libwebp --enable-libx264 --enable-libx265 --enable-libxvid --enable-libaom --enable-libopenjpeg --enable-libvpx --enable-mediafoundation --enable-libass --enable-libfreetype --enable-libfribidi --enable-libharfbuzz --enable-libvidstab --enable-libvmaf --enable-libzimg --enable-amf --enable-cuda-llvm --enable-cuvid --enable-dxva2 --enable-d3d11va --enable-d3d12va --enable-ffnvcodec --enable-libvpl --enable-nvdec --enable-nvenc --enable-vaapi --enable-libgme --enable-libopenmpt --enable-libopencore-amrwb --enable-libmp3lame --enable-libtheora --enable-libvo-amrwbenc --enable-libgsm --enable-libopencore-amrnb --enable-libopus --enable-libspeex --enable-libvorbis --enable-librubberband
  libavutil      59.  8.100 / 59.  8.100
  libavcodec     61.  3.100 / 61.  3.100
  libavformat    61.  1.100 / 61.  1.100
  libavdevice    61.  1.100 / 61.  1.100
  libavfilter    10.  1.100 / 10.  1.100
  libswscale      8.  1.100 /  8.  1.100
  libswresample   5.  1.100 /  5.  1.100
  libpostproc    58.  1.100 / 58.  1.100
[mov,mp4,m4a,3gp,3g2,mj2 @ 000001c0e85eedc0] Unknown cover type: 0x1.
Input #0, mov,mp4,m4a,3gp,3g2,mj2, from 'F:\演唱会已处理\16\[Linkin Park] - (2014 .mp4':
  Metadata:
    major_brand     : isom
    minor_version   : 512
    compatible_brands: isomiso2avc1mp41
    creation_time   : 2024-08-16T05:43:58.000000Z
    Hw              : 0
    bitrate         : 12000000
    maxrate         : 0
    te_is_reencode  : 1
    encoder         : Lavf58.76.100
  Duration: 01:34:47.97, start: 0.000000, bitrate: 10066 kb/s
  Stream #0:0[0x1](und): Video: h264 (Main) (avc1 / 0x31637661), yuv420p(tv, bt709, progressive), 1920x1080, 9869 kb/s, 30 fps, 30 tbr, 15360 tbn (default)
      Metadata:
        creation_time   : 2024-08-16T05:43:58.000000Z
        handler_name    : VideoHandler
        vendor_id       : [0][0][0][0]
  Stream #0:1[0x2](und): Audio: aac (LC) (mp4a / 0x6134706D), 44100 Hz, stereo, fltp, 193 kb/s (default)
      Metadata:
        creation_time   : 2024-08-16T05:43:58.000000Z
        handler_name    : SoundHandler
        vendor_id       : [0][0][0][0]
[out#0/mp4 @ 000001c0e8be1040] Error opening output F:\切片\四分之一\16\.\[Linkin Park] - (2014 \[Linkin Park] - (2014 _segment_2.mp4: No such file or directory
Error opening output file F:\切片\四分之一\16\.\[Linkin Park] - (2014 \[Linkin Park] - (2014 _segment_2.mp4.
Error opening output files: No such file or directory

2024-08-19 10:08:11,532 ERROR:处理 F:\演唱会已处理\16\[Lady Gaga] .mp4 的片段 3334.15 - 5001.225 时出错: ffmpeg version 7.0.1-essentials_build-www.gyan.dev Copyright (c) 2000-2024 the FFmpeg developers
  built with gcc 13.2.0 (Rev5, Built by MSYS2 project)
  configuration: --enable-gpl --enable-version3 --enable-static --disable-w32threads --disable-autodetect --enable-fontconfig --enable-iconv --enable-gnutls --enable-libxml2 --enable-gmp --enable-bzlib --enable-lzma --enable-zlib --enable-libsrt --enable-libssh --enable-libzmq --enable-avisynth --enable-sdl2 --enable-libwebp --enable-libx264 --enable-libx265 --enable-libxvid --enable-libaom --enable-libopenjpeg --enable-libvpx --enable-mediafoundation --enable-libass --enable-libfreetype --enable-libfribidi --enable-libharfbuzz --enable-libvidstab --enable-libvmaf --enable-libzimg --enable-amf --enable-cuda-llvm --enable-cuvid --enable-dxva2 --enable-d3d11va --enable-d3d12va --enable-ffnvcodec --enable-libvpl --enable-nvdec --enable-nvenc --enable-vaapi --enable-libgme --enable-libopenmpt --enable-libopencore-amrwb --enable-libmp3lame --enable-libtheora --enable-libvo-amrwbenc --enable-libgsm --enable-libopencore-amrnb --enable-libopus --enable-libspeex --enable-libvorbis --enable-librubberband
  libavutil      59.  8.100 / 59.  8.100
  libavcodec     61.  3.100 / 61.  3.100
  libavformat    61.  1.100 / 61.  1.100
  libavdevice    61.  1.100 / 61.  1.100
  libavfilter    10.  1.100 / 10.  1.100
  libswscale      8.  1.100 /  8.  1.100
  libswresample   5.  1.100 /  5.  1.100
  libpostproc    58.  1.100 / 58.  1.100
[mov,mp4,m4a,3gp,3g2,mj2 @ 000001aa2673edc0] Unknown cover type: 0x1.
Input #0, mov,mp4,m4a,3gp,3g2,mj2, from 'F:\演唱会已处理\16\[Lady Gaga] .mp4':
  Metadata:
    major_brand     : isom
    minor_version   : 512
    compatible_brands: isomiso2avc1mp41
    creation_time   : 2024-08-16T04:43:42.000000Z
    Hw              : 0
    bitrate         : 12000000
    maxrate         : 0
    te_is_reencode  : 1
    encoder         : Lavf58.76.100
  Duration: 01:51:08.32, start: 0.000000, bitrate: 11854 kb/s
  Stream #0:0[0x1](und): Video: h264 (Main) (avc1 / 0x31637661), yuv420p(tv, bt709, progressive), 1920x1080, 11656 kb/s, 30 fps, 30 tbr, 15360 tbn (default)
      Metadata:
        creation_time   : 2024-08-16T04:43:42.000000Z
        handler_name    : VideoHandler
        vendor_id       : [0][0][0][0]
  Stream #0:1[0x2](und): Audio: aac (LC) (mp4a / 0x6134706D), 44100 Hz, stereo, fltp, 193 kb/s (default)
      Metadata:
        creation_time   : 2024-08-16T04:43:42.000000Z
        handler_name    : SoundHandler
        vendor_id       : [0][0][0][0]
[out#0/mp4 @ 000001aa26810cc0] Error opening output F:\切片\四分之一\16\.\[Lady Gaga] \[Lady Gaga] _segment_3.mp4: No such file or directory
Error opening output file F:\切片\四分之一\16\.\[Lady Gaga] \[Lady Gaga] _segment_3.mp4.
Error opening output files: No such file or directory

2024-08-19 10:08:11,641 ERROR:处理 F:\演唱会已处理\16\[Linkin Park] - (2014 .mp4 的片段 2843.983333333333 - 4265.974999999999 时出错: ffmpeg version 7.0.1-essentials_build-www.gyan.dev Copyright (c) 2000-2024 the FFmpeg developers
  built with gcc 13.2.0 (Rev5, Built by MSYS2 project)
  configuration: --enable-gpl --enable-version3 --enable-static --disable-w32threads --disable-autodetect --enable-fontconfig --enable-iconv --enable-gnutls --enable-libxml2 --enable-gmp --enable-bzlib --enable-lzma --enable-zlib --enable-libsrt --enable-libssh --enable-libzmq --enable-avisynth --enable-sdl2 --enable-libwebp --enable-libx264 --enable-libx265 --enable-libxvid --enable-libaom --enable-libopenjpeg --enable-libvpx --enable-mediafoundation --enable-libass --enable-libfreetype --enable-libfribidi --enable-libharfbuzz --enable-libvidstab --enable-libvmaf --enable-libzimg --enable-amf --enable-cuda-llvm --enable-cuvid --enable-dxva2 --enable-d3d11va --enable-d3d12va --enable-ffnvcodec --enable-libvpl --enable-nvdec --enable-nvenc --enable-vaapi --enable-libgme --enable-libopenmpt --enable-libopencore-amrwb --enable-libmp3lame --enable-libtheora --enable-libvo-amrwbenc --enable-libgsm --enable-libopencore-amrnb --enable-libopus --enable-libspeex --enable-libvorbis --enable-librubberband
  libavutil      59.  8.100 / 59.  8.100
  libavcodec     61.  3.100 / 61.  3.100
  libavformat    61.  1.100 / 61.  1.100
  libavdevice    61.  1.100 / 61.  1.100
  libavfilter    10.  1.100 / 10.  1.100
  libswscale      8.  1.100 /  8.  1.100
  libswresample   5.  1.100 /  5.  1.100
  libpostproc    58.  1.100 / 58.  1.100
[mov,mp4,m4a,3gp,3g2,mj2 @ 0000016cc92dedc0] Unknown cover type: 0x1.
Input #0, mov,mp4,m4a,3gp,3g2,mj2, from 'F:\演唱会已处理\16\[Linkin Park] - (2014 .mp4':
  Metadata:
    major_brand     : isom
    minor_version   : 512
    compatible_brands: isomiso2avc1mp41
    creation_time   : 2024-08-16T05:43:58.000000Z
    Hw              : 0
    bitrate         : 12000000
    maxrate         : 0
    te_is_reencode  : 1
    encoder         : Lavf58.76.100
  Duration: 01:34:47.97, start: 0.000000, bitrate: 10066 kb/s
  Stream #0:0[0x1](und): Video: h264 (Main) (avc1 / 0x31637661), yuv420p(tv, bt709, progressive), 1920x1080, 9869 kb/s, 30 fps, 30 tbr, 15360 tbn (default)
      Metadata:
        creation_time   : 2024-08-16T05:43:58.000000Z
        handler_name    : VideoHandler
        vendor_id       : [0][0][0][0]
  Stream #0:1[0x2](und): Audio: aac (LC) (mp4a / 0x6134706D), 44100 Hz, stereo, fltp, 193 kb/s (default)
      Metadata:
        creation_time   : 2024-08-16T05:43:58.000000Z
        handler_name    : SoundHandler
        vendor_id       : [0][0][0][0]
[out#0/mp4 @ 0000016cc98d1040] Error opening output F:\切片\四分之一\16\.\[Linkin Park] - (2014 \[Linkin Park] - (2014 _segment_3.mp4: No such file or directory
Error opening output file F:\切片\四分之一\16\.\[Linkin Park] - (2014 \[Linkin Park] - (2014 _segment_3.mp4.
Error opening output files: No such file or directory

2024-08-19 10:08:11,867 ERROR:处理 F:\演唱会已处理\16\[Lady Gaga] .mp4 的片段 5001.225 - 6668.3 时出错: ffmpeg version 7.0.1-essentials_build-www.gyan.dev Copyright (c) 2000-2024 the FFmpeg developers
  built with gcc 13.2.0 (Rev5, Built by MSYS2 project)
  configuration: --enable-gpl --enable-version3 --enable-static --disable-w32threads --disable-autodetect --enable-fontconfig --enable-iconv --enable-gnutls --enable-libxml2 --enable-gmp --enable-bzlib --enable-lzma --enable-zlib --enable-libsrt --enable-libssh --enable-libzmq --enable-avisynth --enable-sdl2 --enable-libwebp --enable-libx264 --enable-libx265 --enable-libxvid --enable-libaom --enable-libopenjpeg --enable-libvpx --enable-mediafoundation --enable-libass --enable-libfreetype --enable-libfribidi --enable-libharfbuzz --enable-libvidstab --enable-libvmaf --enable-libzimg --enable-amf --enable-cuda-llvm --enable-cuvid --enable-dxva2 --enable-d3d11va --enable-d3d12va --enable-ffnvcodec --enable-libvpl --enable-nvdec --enable-nvenc --enable-vaapi --enable-libgme --enable-libopenmpt --enable-libopencore-amrwb --enable-libmp3lame --enable-libtheora --enable-libvo-amrwbenc --enable-libgsm --enable-libopencore-amrnb --enable-libopus --enable-libspeex --enable-libvorbis --enable-librubberband
  libavutil      59.  8.100 / 59.  8.100
  libavcodec     61.  3.100 / 61.  3.100
  libavformat    61.  1.100 / 61.  1.100
  libavdevice    61.  1.100 / 61.  1.100
  libavfilter    10.  1.100 / 10.  1.100
  libswscale      8.  1.100 /  8.  1.100
  libswresample   5.  1.100 /  5.  1.100
  libpostproc    58.  1.100 / 58.  1.100
[mov,mp4,m4a,3gp,3g2,mj2 @ 00000182935d2d40] Unknown cover type: 0x1.
Input #0, mov,mp4,m4a,3gp,3g2,mj2, from 'F:\演唱会已处理\16\[Lady Gaga] .mp4':
  Metadata:
    major_brand     : isom
    minor_version   : 512
    compatible_brands: isomiso2avc1mp41
    creation_time   : 2024-08-16T04:43:42.000000Z
    Hw              : 0
    bitrate         : 12000000
    maxrate         : 0
    te_is_reencode  : 1
    encoder         : Lavf58.76.100
  Duration: 01:51:08.32, start: 0.000000, bitrate: 11854 kb/s
  Stream #0:0[0x1](und): Video: h264 (Main) (avc1 / 0x31637661), yuv420p(tv, bt709, progressive), 1920x1080, 11656 kb/s, 30 fps, 30 tbr, 15360 tbn (default)
      Metadata:
        creation_time   : 2024-08-16T04:43:42.000000Z
        handler_name    : VideoHandler
        vendor_id       : [0][0][0][0]
  Stream #0:1[0x2](und): Audio: aac (LC) (mp4a / 0x6134706D), 44100 Hz, stereo, fltp, 193 kb/s (default)
      Metadata:
        creation_time   : 2024-08-16T04:43:42.000000Z
        handler_name    : SoundHandler
        vendor_id       : [0][0][0][0]
[out#0/mp4 @ 00000182936a0bc0] Error opening output F:\切片\四分之一\16\.\[Lady Gaga] \[Lady Gaga] _segment_4.mp4: No such file or directory
Error opening output file F:\切片\四分之一\16\.\[Lady Gaga] \[Lady Gaga] _segment_4.mp4.
Error opening output files: No such file or directory

2024-08-19 10:08:11,868 INFO:F:\演唱会已处理\16\[Lady Gaga] .mp4 的处理已完成，耗时 1.46 秒
2024-08-19 10:08:11,908 ERROR:处理 F:\演唱会已处理\16\[Linkin Park] - (2014 .mp4 的片段 4265.974999999999 - 5687.966666666666 时出错: ffmpeg version 7.0.1-essentials_build-www.gyan.dev Copyright (c) 2000-2024 the FFmpeg developers
  built with gcc 13.2.0 (Rev5, Built by MSYS2 project)
  configuration: --enable-gpl --enable-version3 --enable-static --disable-w32threads --disable-autodetect --enable-fontconfig --enable-iconv --enable-gnutls --enable-libxml2 --enable-gmp --enable-bzlib --enable-lzma --enable-zlib --enable-libsrt --enable-libssh --enable-libzmq --enable-avisynth --enable-sdl2 --enable-libwebp --enable-libx264 --enable-libx265 --enable-libxvid --enable-libaom --enable-libopenjpeg --enable-libvpx --enable-mediafoundation --enable-libass --enable-libfreetype --enable-libfribidi --enable-libharfbuzz --enable-libvidstab --enable-libvmaf --enable-libzimg --enable-amf --enable-cuda-llvm --enable-cuvid --enable-dxva2 --enable-d3d11va --enable-d3d12va --enable-ffnvcodec --enable-libvpl --enable-nvdec --enable-nvenc --enable-vaapi --enable-libgme --enable-libopenmpt --enable-libopencore-amrwb --enable-libmp3lame --enable-libtheora --enable-libvo-amrwbenc --enable-libgsm --enable-libopencore-amrnb --enable-libopus --enable-libspeex --enable-libvorbis --enable-librubberband
  libavutil      59.  8.100 / 59.  8.100
  libavcodec     61.  3.100 / 61.  3.100
  libavformat    61.  1.100 / 61.  1.100
  libavdevice    61.  1.100 / 61.  1.100
  libavfilter    10.  1.100 / 10.  1.100
  libswscale      8.  1.100 /  8.  1.100
  libswresample   5.  1.100 /  5.  1.100
  libpostproc    58.  1.100 / 58.  1.100
[mov,mp4,m4a,3gp,3g2,mj2 @ 00000234228eedc0] Unknown cover type: 0x1.
Input #0, mov,mp4,m4a,3gp,3g2,mj2, from 'F:\演唱会已处理\16\[Linkin Park] - (2014 .mp4':
  Metadata:
    major_brand     : isom
    minor_version   : 512
    compatible_brands: isomiso2avc1mp41
    creation_time   : 2024-08-16T05:43:58.000000Z
    Hw              : 0
    bitrate         : 12000000
    maxrate         : 0
    te_is_reencode  : 1
    encoder         : Lavf58.76.100
  Duration: 01:34:47.97, start: 0.000000, bitrate: 10066 kb/s
  Stream #0:0[0x1](und): Video: h264 (Main) (avc1 / 0x31637661), yuv420p(tv, bt709, progressive), 1920x1080, 9869 kb/s, 30 fps, 30 tbr, 15360 tbn (default)
      Metadata:
        creation_time   : 2024-08-16T05:43:58.000000Z
        handler_name    : VideoHandler
        vendor_id       : [0][0][0][0]
  Stream #0:1[0x2](und): Audio: aac (LC) (mp4a / 0x6134706D), 44100 Hz, stereo, fltp, 193 kb/s (default)
      Metadata:
        creation_time   : 2024-08-16T05:43:58.000000Z
        handler_name    : SoundHandler
        vendor_id       : [0][0][0][0]
[out#0/mp4 @ 0000023422ee1040] Error opening output F:\切片\四分之一\16\.\[Linkin Park] - (2014 \[Linkin Park] - (2014 _segment_4.mp4: No such file or directory
Error opening output file F:\切片\四分之一\16\.\[Linkin Park] - (2014 \[Linkin Park] - (2014 _segment_4.mp4.
Error opening output files: No such file or directory

2024-08-19 10:08:11,909 INFO:F:\演唱会已处理\16\[Linkin Park] - (2014 .mp4 的处理已完成，耗时 1.50 秒
2024-08-19 10:08:11,916 INFO:开始处理：F:\演唱会已处理\16\[Mariah.Carey玛丽亚・凯莉]2007.Bl.mp4
2024-08-19 10:08:11,918 INFO:开始处理：F:\演唱会已处理\16\[Nickelback 五分钱].mp4
2024-08-19 10:09:29,100 INFO:成功处理 F:\演唱会已处理\16\[Nickelback 五分钱].mp4 的片段 0.0 - 1099.775
2024-08-19 10:09:31,173 INFO:成功处理 F:\演唱会已处理\16\[Mariah.Carey玛丽亚・凯莉]2007.Bl.mp4 的片段 0.0 - 1166.5833333333333
2024-08-19 10:10:35,849 INFO:成功处理 F:\演唱会已处理\16\[Nickelback 五分钱].mp4 的片段 1099.775 - 2199.55
2024-08-19 10:10:41,657 INFO:成功处理 F:\演唱会已处理\16\[Mariah.Carey玛丽亚・凯莉]2007.Bl.mp4 的片段 1166.5833333333333 - 2333.1666666666665
2024-08-19 10:11:44,094 INFO:成功处理 F:\演唱会已处理\16\[Nickelback 五分钱].mp4 的片段 2199.55 - 3299.3250000000003
2024-08-19 10:11:57,873 INFO:成功处理 F:\演唱会已处理\16\[Mariah.Carey玛丽亚・凯莉]2007.Bl.mp4 的片段 2333.1666666666665 - 3499.75
2024-08-19 10:12:46,646 INFO:成功处理 F:\演唱会已处理\16\[Nickelback 五分钱].mp4 的片段 3299.3250000000003 - 4399.1
2024-08-19 10:12:46,646 INFO:F:\演唱会已处理\16\[Nickelback 五分钱].mp4 的处理已完成，耗时 274.73 秒
2024-08-19 10:13:01,301 INFO:成功处理 F:\演唱会已处理\16\[Mariah.Carey玛丽亚・凯莉]2007.Bl.mp4 的片段 3499.75 - 4666.333333333333
2024-08-19 10:13:01,301 INFO:F:\演唱会已处理\16\[Mariah.Carey玛丽亚・凯莉]2007.Bl.mp4 的处理已完成，耗时 289.39 秒
2024-08-19 10:13:01,302 INFO:开始处理：F:\演唱会已处理\16\[SKE48]日本Channel.mp4
2024-08-19 10:13:01,302 INFO:开始处理：F:\演唱会已处理\16\[Taylor Swift]Shake It Off 2014 .mp4
2024-08-19 10:13:01,626 ERROR:处理 F:\演唱会已处理\16\[Taylor Swift]Shake It Off 2014 .mp4 的片段 0.0 - 73.6 时出错: ffmpeg version 7.0.1-essentials_build-www.gyan.dev Copyright (c) 2000-2024 the FFmpeg developers
  built with gcc 13.2.0 (Rev5, Built by MSYS2 project)
  configuration: --enable-gpl --enable-version3 --enable-static --disable-w32threads --disable-autodetect --enable-fontconfig --enable-iconv --enable-gnutls --enable-libxml2 --enable-gmp --enable-bzlib --enable-lzma --enable-zlib --enable-libsrt --enable-libssh --enable-libzmq --enable-avisynth --enable-sdl2 --enable-libwebp --enable-libx264 --enable-libx265 --enable-libxvid --enable-libaom --enable-libopenjpeg --enable-libvpx --enable-mediafoundation --enable-libass --enable-libfreetype --enable-libfribidi --enable-libharfbuzz --enable-libvidstab --enable-libvmaf --enable-libzimg --enable-amf --enable-cuda-llvm --enable-cuvid --enable-dxva2 --enable-d3d11va --enable-d3d12va --enable-ffnvcodec --enable-libvpl --enable-nvdec --enable-nvenc --enable-vaapi --enable-libgme --enable-libopenmpt --enable-libopencore-amrwb --enable-libmp3lame --enable-libtheora --enable-libvo-amrwbenc --enable-libgsm --enable-libopencore-amrnb --enable-libopus --enable-libspeex --enable-libvorbis --enable-librubberband
  libavutil      59.  8.100 / 59.  8.100
  libavcodec     61.  3.100 / 61.  3.100
  libavformat    61.  1.100 / 61.  1.100
  libavdevice    61.  1.100 / 61.  1.100
  libavfilter    10.  1.100 / 10.  1.100
  libswscale      8.  1.100 /  8.  1.100
  libswresample   5.  1.100 /  5.  1.100
  libpostproc    58.  1.100 / 58.  1.100
[mov,mp4,m4a,3gp,3g2,mj2 @ 0000028a6d49edc0] Unknown cover type: 0x1.
Input #0, mov,mp4,m4a,3gp,3g2,mj2, from 'F:\演唱会已处理\16\[Taylor Swift]Shake It Off 2014 .mp4':
  Metadata:
    major_brand     : isom
    minor_version   : 512
    compatible_brands: isomiso2mp41
    creation_time   : 2024-08-16T09:54:04.000000Z
    Hw              : 0
    bitrate         : 12000000
    maxrate         : 0
    te_is_reencode  : 1
    encoder         : Lavf58.76.100
  Duration: 00:04:54.41, start: 0.000000, bitrate: 9258 kb/s
  Stream #0:0[0x1](und): Video: hevc (Main) (hvc1 / 0x31637668), yuv420p(tv, bt709), 1920x1080, 9060 kb/s, 30 fps, 30 tbr, 15360 tbn (default)
      Metadata:
        creation_time   : 2024-08-16T09:54:04.000000Z
        handler_name    : VideoHandler
        vendor_id       : [0][0][0][0]
  Stream #0:1[0x2](und): Audio: aac (LC) (mp4a / 0x6134706D), 44100 Hz, stereo, fltp, 194 kb/s (default)
      Metadata:
        creation_time   : 2024-08-16T09:54:04.000000Z
        handler_name    : SoundHandler
        vendor_id       : [0][0][0][0]
[out#0/mp4 @ 0000028a6d976580] Error opening output F:\切片\四分之一\16\.\[Taylor Swift]Shake It Off 2014 \[Taylor Swift]Shake It Off 2014 _segment_1.mp4: No such file or directory
Error opening output file F:\切片\四分之一\16\.\[Taylor Swift]Shake It Off 2014 \[Taylor Swift]Shake It Off 2014 _segment_1.mp4.
Error opening output files: No such file or directory

2024-08-19 10:13:01,705 ERROR:处理 F:\演唱会已处理\16\[Taylor Swift]Shake It Off 2014 .mp4 的片段 73.6 - 147.2 时出错: ffmpeg version 7.0.1-essentials_build-www.gyan.dev Copyright (c) 2000-2024 the FFmpeg developers
  built with gcc 13.2.0 (Rev5, Built by MSYS2 project)
  configuration: --enable-gpl --enable-version3 --enable-static --disable-w32threads --disable-autodetect --enable-fontconfig --enable-iconv --enable-gnutls --enable-libxml2 --enable-gmp --enable-bzlib --enable-lzma --enable-zlib --enable-libsrt --enable-libssh --enable-libzmq --enable-avisynth --enable-sdl2 --enable-libwebp --enable-libx264 --enable-libx265 --enable-libxvid --enable-libaom --enable-libopenjpeg --enable-libvpx --enable-mediafoundation --enable-libass --enable-libfreetype --enable-libfribidi --enable-libharfbuzz --enable-libvidstab --enable-libvmaf --enable-libzimg --enable-amf --enable-cuda-llvm --enable-cuvid --enable-dxva2 --enable-d3d11va --enable-d3d12va --enable-ffnvcodec --enable-libvpl --enable-nvdec --enable-nvenc --enable-vaapi --enable-libgme --enable-libopenmpt --enable-libopencore-amrwb --enable-libmp3lame --enable-libtheora --enable-libvo-amrwbenc --enable-libgsm --enable-libopencore-amrnb --enable-libopus --enable-libspeex --enable-libvorbis --enable-librubberband
  libavutil      59.  8.100 / 59.  8.100
  libavcodec     61.  3.100 / 61.  3.100
  libavformat    61.  1.100 / 61.  1.100
  libavdevice    61.  1.100 / 61.  1.100
  libavfilter    10.  1.100 / 10.  1.100
  libswscale      8.  1.100 /  8.  1.100
  libswresample   5.  1.100 /  5.  1.100
  libpostproc    58.  1.100 / 58.  1.100
[mov,mp4,m4a,3gp,3g2,mj2 @ 000001517156edc0] Unknown cover type: 0x1.
Input #0, mov,mp4,m4a,3gp,3g2,mj2, from 'F:\演唱会已处理\16\[Taylor Swift]Shake It Off 2014 .mp4':
  Metadata:
    major_brand     : isom
    minor_version   : 512
    compatible_brands: isomiso2mp41
    creation_time   : 2024-08-16T09:54:04.000000Z
    Hw              : 0
    bitrate         : 12000000
    maxrate         : 0
    te_is_reencode  : 1
    encoder         : Lavf58.76.100
  Duration: 00:04:54.41, start: 0.000000, bitrate: 9258 kb/s
  Stream #0:0[0x1](und): Video: hevc (Main) (hvc1 / 0x31637668), yuv420p(tv, bt709), 1920x1080, 9060 kb/s, 30 fps, 30 tbr, 15360 tbn (default)
      Metadata:
        creation_time   : 2024-08-16T09:54:04.000000Z
        handler_name    : VideoHandler
        vendor_id       : [0][0][0][0]
  Stream #0:1[0x2](und): Audio: aac (LC) (mp4a / 0x6134706D), 44100 Hz, stereo, fltp, 194 kb/s (default)
      Metadata:
        creation_time   : 2024-08-16T09:54:04.000000Z
        handler_name    : SoundHandler
        vendor_id       : [0][0][0][0]
[out#0/mp4 @ 00000151716e6580] Error opening output F:\切片\四分之一\16\.\[Taylor Swift]Shake It Off 2014 \[Taylor Swift]Shake It Off 2014 _segment_2.mp4: No such file or directory
Error opening output file F:\切片\四分之一\16\.\[Taylor Swift]Shake It Off 2014 \[Taylor Swift]Shake It Off 2014 _segment_2.mp4.
Error opening output files: No such file or directory

2024-08-19 10:13:01,816 ERROR:处理 F:\演唱会已处理\16\[Taylor Swift]Shake It Off 2014 .mp4 的片段 147.2 - 220.79999999999998 时出错: ffmpeg version 7.0.1-essentials_build-www.gyan.dev Copyright (c) 2000-2024 the FFmpeg developers
  built with gcc 13.2.0 (Rev5, Built by MSYS2 project)
  configuration: --enable-gpl --enable-version3 --enable-static --disable-w32threads --disable-autodetect --enable-fontconfig --enable-iconv --enable-gnutls --enable-libxml2 --enable-gmp --enable-bzlib --enable-lzma --enable-zlib --enable-libsrt --enable-libssh --enable-libzmq --enable-avisynth --enable-sdl2 --enable-libwebp --enable-libx264 --enable-libx265 --enable-libxvid --enable-libaom --enable-libopenjpeg --enable-libvpx --enable-mediafoundation --enable-libass --enable-libfreetype --enable-libfribidi --enable-libharfbuzz --enable-libvidstab --enable-libvmaf --enable-libzimg --enable-amf --enable-cuda-llvm --enable-cuvid --enable-dxva2 --enable-d3d11va --enable-d3d12va --enable-ffnvcodec --enable-libvpl --enable-nvdec --enable-nvenc --enable-vaapi --enable-libgme --enable-libopenmpt --enable-libopencore-amrwb --enable-libmp3lame --enable-libtheora --enable-libvo-amrwbenc --enable-libgsm --enable-libopencore-amrnb --enable-libopus --enable-libspeex --enable-libvorbis --enable-librubberband
  libavutil      59.  8.100 / 59.  8.100
  libavcodec     61.  3.100 / 61.  3.100
  libavformat    61.  1.100 / 61.  1.100
  libavdevice    61.  1.100 / 61.  1.100
  libavfilter    10.  1.100 / 10.  1.100
  libswscale      8.  1.100 /  8.  1.100
  libswresample   5.  1.100 /  5.  1.100
  libpostproc    58.  1.100 / 58.  1.100
[mov,mp4,m4a,3gp,3g2,mj2 @ 0000019cb09dedc0] Unknown cover type: 0x1.
Input #0, mov,mp4,m4a,3gp,3g2,mj2, from 'F:\演唱会已处理\16\[Taylor Swift]Shake It Off 2014 .mp4':
  Metadata:
    major_brand     : isom
    minor_version   : 512
    compatible_brands: isomiso2mp41
    creation_time   : 2024-08-16T09:54:04.000000Z
    Hw              : 0
    bitrate         : 12000000
    maxrate         : 0
    te_is_reencode  : 1
    encoder         : Lavf58.76.100
  Duration: 00:04:54.41, start: 0.000000, bitrate: 9258 kb/s
  Stream #0:0[0x1](und): Video: hevc (Main) (hvc1 / 0x31637668), yuv420p(tv, bt709), 1920x1080, 9060 kb/s, 30 fps, 30 tbr, 15360 tbn (default)
      Metadata:
        creation_time   : 2024-08-16T09:54:04.000000Z
        handler_name    : VideoHandler
        vendor_id       : [0][0][0][0]
  Stream #0:1[0x2](und): Audio: aac (LC) (mp4a / 0x6134706D), 44100 Hz, stereo, fltp, 194 kb/s (default)
      Metadata:
        creation_time   : 2024-08-16T09:54:04.000000Z
        handler_name    : SoundHandler
        vendor_id       : [0][0][0][0]
[out#0/mp4 @ 0000019cb0f06580] Error opening output F:\切片\四分之一\16\.\[Taylor Swift]Shake It Off 2014 \[Taylor Swift]Shake It Off 2014 _segment_3.mp4: No such file or directory
Error opening output file F:\切片\四分之一\16\.\[Taylor Swift]Shake It Off 2014 \[Taylor Swift]Shake It Off 2014 _segment_3.mp4.
Error opening output files: No such file or directory

2024-08-19 10:13:01,927 ERROR:处理 F:\演唱会已处理\16\[Taylor Swift]Shake It Off 2014 .mp4 的片段 220.79999999999998 - 294.4 时出错: ffmpeg version 7.0.1-essentials_build-www.gyan.dev Copyright (c) 2000-2024 the FFmpeg developers
  built with gcc 13.2.0 (Rev5, Built by MSYS2 project)
  configuration: --enable-gpl --enable-version3 --enable-static --disable-w32threads --disable-autodetect --enable-fontconfig --enable-iconv --enable-gnutls --enable-libxml2 --enable-gmp --enable-bzlib --enable-lzma --enable-zlib --enable-libsrt --enable-libssh --enable-libzmq --enable-avisynth --enable-sdl2 --enable-libwebp --enable-libx264 --enable-libx265 --enable-libxvid --enable-libaom --enable-libopenjpeg --enable-libvpx --enable-mediafoundation --enable-libass --enable-libfreetype --enable-libfribidi --enable-libharfbuzz --enable-libvidstab --enable-libvmaf --enable-libzimg --enable-amf --enable-cuda-llvm --enable-cuvid --enable-dxva2 --enable-d3d11va --enable-d3d12va --enable-ffnvcodec --enable-libvpl --enable-nvdec --enable-nvenc --enable-vaapi --enable-libgme --enable-libopenmpt --enable-libopencore-amrwb --enable-libmp3lame --enable-libtheora --enable-libvo-amrwbenc --enable-libgsm --enable-libopencore-amrnb --enable-libopus --enable-libspeex --enable-libvorbis --enable-librubberband
  libavutil      59.  8.100 / 59.  8.100
  libavcodec     61.  3.100 / 61.  3.100
  libavformat    61.  1.100 / 61.  1.100
  libavdevice    61.  1.100 / 61.  1.100
  libavfilter    10.  1.100 / 10.  1.100
  libswscale      8.  1.100 /  8.  1.100
  libswresample   5.  1.100 /  5.  1.100
  libpostproc    58.  1.100 / 58.  1.100
[mov,mp4,m4a,3gp,3g2,mj2 @ 0000024334cfedc0] Unknown cover type: 0x1.
Input #0, mov,mp4,m4a,3gp,3g2,mj2, from 'F:\演唱会已处理\16\[Taylor Swift]Shake It Off 2014 .mp4':
  Metadata:
    major_brand     : isom
    minor_version   : 512
    compatible_brands: isomiso2mp41
    creation_time   : 2024-08-16T09:54:04.000000Z
    Hw              : 0
    bitrate         : 12000000
    maxrate         : 0
    te_is_reencode  : 1
    encoder         : Lavf58.76.100
  Duration: 00:04:54.41, start: 0.000000, bitrate: 9258 kb/s
  Stream #0:0[0x1](und): Video: hevc (Main) (hvc1 / 0x31637668), yuv420p(tv, bt709), 1920x1080, 9060 kb/s, 30 fps, 30 tbr, 15360 tbn (default)
      Metadata:
        creation_time   : 2024-08-16T09:54:04.000000Z
        handler_name    : VideoHandler
        vendor_id       : [0][0][0][0]
  Stream #0:1[0x2](und): Audio: aac (LC) (mp4a / 0x6134706D), 44100 Hz, stereo, fltp, 194 kb/s (default)
      Metadata:
        creation_time   : 2024-08-16T09:54:04.000000Z
        handler_name    : SoundHandler
        vendor_id       : [0][0][0][0]
[out#0/mp4 @ 0000024334e76580] Error opening output F:\切片\四分之一\16\.\[Taylor Swift]Shake It Off 2014 \[Taylor Swift]Shake It Off 2014 _segment_4.mp4: No such file or directory
Error opening output file F:\切片\四分之一\16\.\[Taylor Swift]Shake It Off 2014 \[Taylor Swift]Shake It Off 2014 _segment_4.mp4.
Error opening output files: No such file or directory

2024-08-19 10:13:01,927 INFO:F:\演唱会已处理\16\[Taylor Swift]Shake It Off 2014 .mp4 的处理已完成，耗时 0.62 秒
2024-08-19 10:13:28,654 INFO:成功处理 F:\演唱会已处理\16\[SKE48]日本Channel.mp4 的片段 0.0 - 900.275
2024-08-19 10:13:55,340 INFO:成功处理 F:\演唱会已处理\16\[SKE48]日本Channel.mp4 的片段 900.275 - 1800.55
2024-08-19 10:14:26,614 INFO:成功处理 F:\演唱会已处理\16\[SKE48]日本Channel.mp4 的片段 1800.55 - 2700.825
2024-08-19 10:15:00,430 INFO:成功处理 F:\演唱会已处理\16\[SKE48]日本Channel.mp4 的片段 2700.825 - 3601.1
2024-08-19 10:15:00,430 INFO:F:\演唱会已处理\16\[SKE48]日本Channel.mp4 的处理已完成，耗时 119.13 秒
2024-08-19 10:15:00,431 INFO:开始处理：F:\演唱会已处理\16\[迈克尔杰克逊].1988.mp4
2024-08-19 10:15:52,579 INFO:成功处理 F:\演唱会已处理\16\[迈克尔杰克逊].1988.mp4 的片段 0.0 - 1266.4666666666667
2024-08-19 10:16:35,481 INFO:成功处理 F:\演唱会已处理\16\[迈克尔杰克逊].1988.mp4 的片段 1266.4666666666667 - 2532.9333333333334
2024-08-19 10:17:28,919 INFO:成功处理 F:\演唱会已处理\16\[迈克尔杰克逊].1988.mp4 的片段 2532.9333333333334 - 3799.4
2024-08-19 10:18:22,610 INFO:成功处理 F:\演唱会已处理\16\[迈克尔杰克逊].1988.mp4 的片段 3799.4 - 5065.866666666667
2024-08-19 10:18:22,611 INFO:F:\演唱会已处理\16\[迈克尔杰克逊].1988.mp4 的处理已完成，耗时 202.18 秒
2024-08-19 10:18:22,611 INFO:所有视频文件处理完成，总耗时 2064.00 秒
2024-08-20 09:03:41,567 INFO:开始处理：F:\演唱会已处理\19\[TFBOYS]四周年.mp4
2024-08-20 09:03:41,569 INFO:开始处理：F:\演唱会已处理\19\[Tiesto].In.Concert.2003.mp4
2024-08-20 09:06:37,300 INFO:成功处理 F:\演唱会已处理\19\[TFBOYS]四周年.mp4 的片段 0.0 - 2194.9
2024-08-20 09:07:54,465 INFO:成功处理 F:\演唱会已处理\19\[Tiesto].In.Concert.2003.mp4 的片段 0.0 - 3069.55
2024-08-20 09:09:39,033 INFO:成功处理 F:\演唱会已处理\19\[TFBOYS]四周年.mp4 的片段 2194.9 - 4389.8
2024-08-20 09:12:43,062 INFO:成功处理 F:\演唱会已处理\19\[Tiesto].In.Concert.2003.mp4 的片段 3069.55 - 6139.1
2024-08-20 09:13:14,239 INFO:成功处理 F:\演唱会已处理\19\[TFBOYS]四周年.mp4 的片段 4389.8 - 6584.700000000001
2024-08-20 09:17:02,951 INFO:成功处理 F:\演唱会已处理\19\[TFBOYS]四周年.mp4 的片段 6584.700000000001 - 8779.6
2024-08-20 09:17:02,951 INFO:F:\演唱会已处理\19\[TFBOYS]四周年.mp4 的处理已完成，耗时 801.38 秒
2024-08-20 09:17:18,495 INFO:成功处理 F:\演唱会已处理\19\[Tiesto].In.Concert.2003.mp4 的片段 6139.1 - 9208.650000000001
2024-08-20 09:18:35,533 INFO:成功处理 F:\演唱会已处理\19\[Tiesto].In.Concert.2003.mp4 的片段 9208.650000000001 - 12278.2
2024-08-20 09:18:35,533 INFO:F:\演唱会已处理\19\[Tiesto].In.Concert.2003.mp4 的处理已完成，耗时 893.96 秒
2024-08-20 09:18:35,535 INFO:开始处理：F:\演唱会已处理\19\[Twins人人弹起演唱会].mp4
2024-08-20 09:18:35,535 INFO:开始处理：F:\演唱会已处理\19\[Westlife].mp4
2024-08-20 09:20:41,237 INFO:成功处理 F:\演唱会已处理\19\[Westlife].mp4 的片段 0.0 - 1394.95
2024-08-20 09:23:00,762 INFO:成功处理 F:\演唱会已处理\19\[Twins人人弹起演唱会].mp4 的片段 0.0 - 2597.6833333333334
2024-08-20 09:23:18,001 INFO:成功处理 F:\演唱会已处理\19\[Westlife].mp4 的片段 1394.95 - 2789.9
2024-08-20 09:25:24,277 INFO:成功处理 F:\演唱会已处理\19\[Westlife].mp4 的片段 2789.9 - 4184.85
2024-08-20 09:26:38,638 INFO:成功处理 F:\演唱会已处理\19\[Twins人人弹起演唱会].mp4 的片段 2597.6833333333334 - 5195.366666666667
2024-08-20 09:26:52,489 INFO:成功处理 F:\演唱会已处理\19\[Westlife].mp4 的片段 4184.85 - 5579.8
2024-08-20 09:26:52,489 INFO:F:\演唱会已处理\19\[Westlife].mp4 的处理已完成，耗时 496.95 秒
2024-08-20 09:28:38,002 INFO:成功处理 F:\演唱会已处理\19\[Twins人人弹起演唱会].mp4 的片段 5195.366666666667 - 7793.05
2024-08-20 09:31:40,025 INFO:成功处理 F:\演唱会已处理\19\[Twins人人弹起演唱会].mp4 的片段 7793.05 - 10390.733333333334
2024-08-20 09:31:40,025 INFO:F:\演唱会已处理\19\[Twins人人弹起演唱会].mp4 的处理已完成，耗时 784.49 秒
2024-08-20 09:31:40,037 INFO:开始处理：F:\演唱会已处理\19\动力火车：下一站演唱.mp4
2024-08-20 09:34:13,387 INFO:成功处理 F:\演唱会已处理\19\动力火车：下一站演唱.mp4 的片段 0.0 - 2299.233333333333
2024-08-20 09:36:56,550 INFO:成功处理 F:\演唱会已处理\19\动力火车：下一站演唱.mp4 的片段 2299.233333333333 - 4598.466666666666
2024-08-20 09:38:47,741 INFO:成功处理 F:\演唱会已处理\19\动力火车：下一站演唱.mp4 的片段 4598.466666666666 - 6897.699999999999
2024-08-20 09:41:59,142 INFO:成功处理 F:\演唱会已处理\19\动力火车：下一站演唱.mp4 的片段 6897.699999999999 - 9196.933333333332
2024-08-20 09:41:59,142 INFO:F:\演唱会已处理\19\动力火车：下一站演唱.mp4 的处理已完成，耗时 619.08 秒
2024-08-20 09:41:59,144 INFO:所有视频文件处理完成，总耗时 2297.60 秒
2024-08-21 09:13:10,586 INFO:开始处理：F:\去字幕\20\[五月天]人生无限.mp4
2024-08-21 09:13:10,588 INFO:开始处理：F:\去字幕\20\[五月天]陪你守岁.mp4
2024-08-21 09:15:24,622 INFO:成功处理 F:\去字幕\20\[五月天]人生无限.mp4 的片段 0.0 - 1718.3583333333333
2024-08-21 09:15:33,469 INFO:成功处理 F:\去字幕\20\[五月天]陪你守岁.mp4 的片段 0.0 - 1793.675
2024-08-21 09:18:26,753 INFO:成功处理 F:\去字幕\20\[五月天]人生无限.mp4 的片段 1718.3583333333333 - 3436.7166666666667
2024-08-21 09:18:36,031 INFO:成功处理 F:\去字幕\20\[五月天]陪你守岁.mp4 的片段 1793.675 - 3587.35
2024-08-21 09:20:33,203 INFO:成功处理 F:\去字幕\20\[五月天]人生无限.mp4 的片段 3436.7166666666667 - 5155.075
2024-08-21 09:20:55,284 INFO:成功处理 F:\去字幕\20\[五月天]陪你守岁.mp4 的片段 3587.35 - 5381.025
2024-08-21 09:22:37,291 INFO:成功处理 F:\去字幕\20\[五月天]人生无限.mp4 的片段 5155.075 - 6873.433333333333
2024-08-21 09:22:37,292 INFO:F:\去字幕\20\[五月天]人生无限.mp4 的处理已完成，耗时 566.70 秒
2024-08-21 09:22:53,224 INFO:成功处理 F:\去字幕\20\[五月天]陪你守岁.mp4 的片段 5381.025 - 7174.7
2024-08-21 09:22:53,225 INFO:F:\去字幕\20\[五月天]陪你守岁.mp4 的处理已完成，耗时 582.64 秒
2024-08-21 09:22:53,229 INFO:开始处理：F:\去字幕\20\[刘德华].mp4
2024-08-21 09:22:53,232 INFO:开始处理：F:\去字幕\20\[后街男孩].mp4
2024-08-21 09:24:40,975 INFO:成功处理 F:\去字幕\20\[后街男孩].mp4 的片段 0.0 - 1603.05
2024-08-21 09:25:33,032 INFO:成功处理 F:\去字幕\20\[刘德华].mp4 的片段 0.0 - 2266.9333333333334
2024-08-21 09:26:16,201 INFO:成功处理 F:\去字幕\20\[后街男孩].mp4 的片段 1603.05 - 3206.1
2024-08-21 09:27:44,444 INFO:成功处理 F:\去字幕\20\[刘德华].mp4 的片段 2266.9333333333334 - 4533.866666666667
2024-08-21 09:27:48,524 INFO:成功处理 F:\去字幕\20\[后街男孩].mp4 的片段 3206.1 - 4809.15
2024-08-21 09:29:44,800 INFO:成功处理 F:\去字幕\20\[后街男孩].mp4 的片段 4809.15 - 6412.2
2024-08-21 09:29:44,800 INFO:F:\去字幕\20\[后街男孩].mp4 的处理已完成，耗时 411.57 秒
2024-08-21 09:30:17,903 INFO:成功处理 F:\去字幕\20\[刘德华].mp4 的片段 4533.866666666667 - 6800.8
2024-08-21 09:31:43,294 INFO:成功处理 F:\去字幕\20\[刘德华].mp4 的片段 6800.8 - 9067.733333333334
2024-08-21 09:31:43,295 INFO:F:\去字幕\20\[刘德华].mp4 的处理已完成，耗时 530.06 秒
2024-08-21 09:31:43,300 INFO:开始处理：F:\去字幕\20\五月天-突然好想见到你.mp4
2024-08-21 09:31:43,306 INFO:开始处理：F:\去字幕\20\伍佰.mp4
2024-08-21 09:32:37,906 INFO:成功处理 F:\去字幕\20\五月天-突然好想见到你.mp4 的片段 0.0 - 921.8333333333334
2024-08-21 09:33:44,257 INFO:成功处理 F:\去字幕\20\五月天-突然好想见到你.mp4 的片段 921.8333333333334 - 1843.6666666666667
2024-08-21 09:34:32,855 INFO:成功处理 F:\去字幕\20\五月天-突然好想见到你.mp4 的片段 1843.6666666666667 - 2765.5
2024-08-21 09:34:53,093 INFO:成功处理 F:\去字幕\20\伍佰.mp4 的片段 0.0 - 3089.025
2024-08-21 09:35:28,152 INFO:成功处理 F:\去字幕\20\五月天-突然好想见到你.mp4 的片段 2765.5 - 3687.3333333333335
2024-08-21 09:35:28,152 INFO:F:\去字幕\20\五月天-突然好想见到你.mp4 的处理已完成，耗时 224.85 秒
2024-08-21 09:37:30,737 INFO:成功处理 F:\去字幕\20\伍佰.mp4 的片段 3089.025 - 6178.05
2024-08-21 09:39:19,037 INFO:成功处理 F:\去字幕\20\伍佰.mp4 的片段 6178.05 - 9267.075
2024-08-21 09:41:08,316 INFO:成功处理 F:\去字幕\20\伍佰.mp4 的片段 9267.075 - 12356.1
2024-08-21 09:41:08,316 INFO:F:\去字幕\20\伍佰.mp4 的处理已完成，耗时 565.01 秒
2024-08-21 09:41:08,321 INFO:所有视频文件处理完成，总耗时 1677.74 秒
2024-08-22 09:21:09,340 INFO:开始处理：F:\去字幕\21\Avril Lavigne-disc1.mp4
2024-08-22 09:21:09,341 INFO:开始处理：F:\去字幕\21\Avril Lavigne-disc2.mp4
2024-08-22 09:21:28,104 INFO:成功处理 F:\去字幕\21\Avril Lavigne-disc2.mp4 的片段 0.0 - 331.51666666666665
2024-08-22 09:21:36,261 INFO:成功处理 F:\去字幕\21\Avril Lavigne-disc1.mp4 的片段 0.0 - 489.39166666666665
2024-08-22 09:21:45,860 INFO:成功处理 F:\去字幕\21\Avril Lavigne-disc2.mp4 的片段 331.51666666666665 - 663.0333333333333
2024-08-22 09:22:08,178 INFO:成功处理 F:\去字幕\21\Avril Lavigne-disc1.mp4 的片段 489.39166666666665 - 978.7833333333333
2024-08-22 09:22:09,161 INFO:成功处理 F:\去字幕\21\Avril Lavigne-disc2.mp4 的片段 663.0333333333333 - 994.55
2024-08-22 09:22:30,809 INFO:成功处理 F:\去字幕\21\Avril Lavigne-disc2.mp4 的片段 994.55 - 1326.0666666666666
2024-08-22 09:22:30,809 INFO:F:\去字幕\21\Avril Lavigne-disc2.mp4 的处理已完成，耗时 81.47 秒
2024-08-22 09:22:35,333 INFO:成功处理 F:\去字幕\21\Avril Lavigne-disc1.mp4 的片段 978.7833333333333 - 1468.175
2024-08-22 09:22:47,223 INFO:成功处理 F:\去字幕\21\Avril Lavigne-disc1.mp4 的片段 1468.175 - 1957.5666666666666
2024-08-22 09:22:47,223 INFO:F:\去字幕\21\Avril Lavigne-disc1.mp4 的处理已完成，耗时 97.88 秒
2024-08-22 09:22:47,223 INFO:开始处理：F:\去字幕\21\C情令G风演唱会.mp4
2024-08-22 09:22:47,223 INFO:开始处理：F:\去字幕\21\[4K] 180210.mp4
2024-08-22 09:22:49,551 INFO:成功处理 F:\去字幕\21\[4K] 180210.mp4 的片段 0.0 - 56.708333333333336
2024-08-22 09:22:54,451 INFO:成功处理 F:\去字幕\21\[4K] 180210.mp4 的片段 56.708333333333336 - 113.41666666666667
2024-08-22 09:23:00,971 INFO:成功处理 F:\去字幕\21\[4K] 180210.mp4 的片段 113.41666666666667 - 170.125
2024-08-22 09:23:06,882 INFO:成功处理 F:\去字幕\21\[4K] 180210.mp4 的片段 170.125 - 226.83333333333334
2024-08-22 09:23:06,882 INFO:F:\去字幕\21\[4K] 180210.mp4 的处理已完成，耗时 19.66 秒
2024-08-22 09:24:01,334 INFO:成功处理 F:\去字幕\21\C情令G风演唱会.mp4 的片段 0.0 - 2472.4137931034484
2024-08-22 09:25:04,159 INFO:成功处理 F:\去字幕\21\C情令G风演唱会.mp4 的片段 2472.4137931034484 - 4944.827586206897
2024-08-22 09:26:23,056 INFO:成功处理 F:\去字幕\21\C情令G风演唱会.mp4 的片段 4944.827586206897 - 7417.241379310345
2024-08-22 09:27:21,252 INFO:成功处理 F:\去字幕\21\C情令G风演唱会.mp4 的片段 7417.241379310345 - 9889.655172413793
2024-08-22 09:27:21,252 INFO:F:\去字幕\21\C情令G风演唱会.mp4 的处理已完成，耗时 274.03 秒
2024-08-22 09:27:21,253 INFO:开始处理：F:\去字幕\21\[伍佰]2018透南风.mp4
2024-08-22 09:27:21,254 INFO:开始处理：F:\去字幕\21\[周杰伦]2010超时代.mp4
2024-08-22 09:29:25,217 INFO:成功处理 F:\去字幕\21\[周杰伦]2010超时代.mp4 的片段 0.0 - 1657.4833333333333
2024-08-22 09:30:15,170 INFO:成功处理 F:\去字幕\21\[伍佰]2018透南风.mp4 的片段 0.0 - 2410.060344827586
2024-08-22 09:31:06,953 INFO:成功处理 F:\去字幕\21\[周杰伦]2010超时代.mp4 的片段 1657.4833333333333 - 3314.9666666666667
2024-08-22 09:32:30,552 INFO:成功处理 F:\去字幕\21\[伍佰]2018透南风.mp4 的片段 2410.060344827586 - 4820.120689655172
2024-08-22 09:32:43,293 INFO:成功处理 F:\去字幕\21\[周杰伦]2010超时代.mp4 的片段 3314.9666666666667 - 4972.45
2024-08-22 09:34:12,013 INFO:成功处理 F:\去字幕\21\[周杰伦]2010超时代.mp4 的片段 4972.45 - 6629.933333333333
2024-08-22 09:34:12,013 INFO:F:\去字幕\21\[周杰伦]2010超时代.mp4 的处理已完成，耗时 410.76 秒
2024-08-22 09:34:27,549 INFO:成功处理 F:\去字幕\21\[伍佰]2018透南风.mp4 的片段 4820.120689655172 - 7230.181034482758
2024-08-22 09:35:32,511 INFO:成功处理 F:\去字幕\21\[伍佰]2018透南风.mp4 的片段 7230.181034482758 - 9640.241379310344
2024-08-22 09:35:32,513 INFO:F:\去字幕\21\[伍佰]2018透南风.mp4 的处理已完成，耗时 491.26 秒
2024-08-22 09:35:32,513 INFO:所有视频文件处理完成，总耗时 863.18 秒
2024-08-23 09:06:39,124 INFO:开始处理：F:\去字幕\22\[Adele].Live.mp4
2024-08-23 09:06:39,126 INFO:开始处理：F:\去字幕\22\[Alizee欧洲演唱会].mp4
2024-08-23 09:07:03,639 INFO:成功处理 F:\去字幕\22\[Adele].Live.mp4 的片段 0.0 - 1491.2
2024-08-23 09:07:12,845 INFO:成功处理 F:\去字幕\22\[Adele].Live.mp4 的片段 1491.2 - 2982.4
2024-08-23 09:07:19,864 INFO:成功处理 F:\去字幕\22\[Adele].Live.mp4 的片段 2982.4 - 4473.6
2024-08-23 09:07:27,172 INFO:成功处理 F:\去字幕\22\[Adele].Live.mp4 的片段 4473.6 - 5964.8
2024-08-23 09:07:27,172 INFO:F:\去字幕\22\[Adele].Live.mp4 的处理已完成，耗时 48.05 秒
2024-08-23 09:07:36,062 INFO:成功处理 F:\去字幕\22\[Alizee欧洲演唱会].mp4 的片段 0.0 - 1305.2833333333333
2024-08-23 09:08:14,504 INFO:成功处理 F:\去字幕\22\[Alizee欧洲演唱会].mp4 的片段 1305.2833333333333 - 2610.5666666666666
2024-08-23 09:08:52,939 INFO:成功处理 F:\去字幕\22\[Alizee欧洲演唱会].mp4 的片段 2610.5666666666666 - 3915.85
2024-08-23 09:09:54,885 INFO:成功处理 F:\去字幕\22\[Alizee欧洲演唱会].mp4 的片段 3915.85 - 5221.133333333333
2024-08-23 09:09:54,885 INFO:F:\去字幕\22\[Alizee欧洲演唱会].mp4 的处理已完成，耗时 195.76 秒
2024-08-23 09:09:54,886 INFO:开始处理：F:\去字幕\22\[Armin van Buuren].mp4
2024-08-23 09:09:54,886 INFO:开始处理：F:\去字幕\22\[Avril][艾薇儿]演唱会.mp4
2024-08-23 09:10:10,620 INFO:成功处理 F:\去字幕\22\[Avril][艾薇儿]演唱会.mp4 的片段 0.0 - 183.33333333333334
2024-08-23 09:10:26,823 INFO:成功处理 F:\去字幕\22\[Avril][艾薇儿]演唱会.mp4 的片段 183.33333333333334 - 366.6666666666667
2024-08-23 09:10:39,264 INFO:成功处理 F:\去字幕\22\[Avril][艾薇儿]演唱会.mp4 的片段 366.6666666666667 - 550.0
2024-08-23 09:10:49,896 INFO:成功处理 F:\去字幕\22\[Avril][艾薇儿]演唱会.mp4 的片段 550.0 - 733.3333333333334
2024-08-23 09:10:49,896 INFO:F:\去字幕\22\[Avril][艾薇儿]演唱会.mp4 的处理已完成，耗时 55.01 秒
2024-08-23 09:10:53,917 INFO:成功处理 F:\去字幕\22\[Armin van Buuren].mp4 的片段 0.0 - 877.075
2024-08-23 09:11:16,518 INFO:成功处理 F:\去字幕\22\[Armin van Buuren].mp4 的片段 877.075 - 1754.15
2024-08-23 09:11:40,825 INFO:成功处理 F:\去字幕\22\[Armin van Buuren].mp4 的片段 1754.15 - 2631.2250000000004
2024-08-23 09:12:05,128 INFO:成功处理 F:\去字幕\22\[Armin van Buuren].mp4 的片段 2631.2250000000004 - 3508.3
2024-08-23 09:12:05,128 INFO:F:\去字幕\22\[Armin van Buuren].mp4 的处理已完成，耗时 130.24 秒
2024-08-23 09:12:05,129 INFO:开始处理：F:\去字幕\22\[David.Garrett].mp4
2024-08-23 09:12:05,129 INFO:开始处理：F:\去字幕\22\[James.Last].mp4
2024-08-23 09:14:24,269 INFO:成功处理 F:\去字幕\22\[James.Last].mp4 的片段 0.0 - 1759.4333333333334
2024-08-23 09:14:39,252 INFO:成功处理 F:\去字幕\22\[David.Garrett].mp4 的片段 0.0 - 1895.7241379310344
2024-08-23 09:17:13,560 INFO:成功处理 F:\去字幕\22\[James.Last].mp4 的片段 1759.4333333333334 - 3518.866666666667
2024-08-23 09:17:42,937 INFO:成功处理 F:\去字幕\22\[David.Garrett].mp4 的片段 1895.7241379310344 - 3791.448275862069
2024-08-23 09:20:14,657 INFO:成功处理 F:\去字幕\22\[James.Last].mp4 的片段 3518.866666666667 - 5278.3
2024-08-23 09:21:01,820 INFO:成功处理 F:\去字幕\22\[David.Garrett].mp4 的片段 3791.448275862069 - 5687.172413793103
2024-08-23 09:23:04,401 INFO:成功处理 F:\去字幕\22\[James.Last].mp4 的片段 5278.3 - 7037.733333333334
2024-08-23 09:23:04,401 INFO:F:\去字幕\22\[James.Last].mp4 的处理已完成，耗时 659.27 秒
2024-08-23 09:23:16,769 INFO:成功处理 F:\去字幕\22\[David.Garrett].mp4 的片段 5687.172413793103 - 7582.896551724138
2024-08-23 09:23:16,770 INFO:F:\去字幕\22\[David.Garrett].mp4 的处理已完成，耗时 671.64 秒
2024-08-23 09:23:16,770 INFO:开始处理：F:\去字幕\22\[Linkin.Park].mp4
2024-08-23 09:23:16,771 INFO:开始处理：F:\去字幕\22\[Madonna][麦当娜.mp4
2024-08-23 09:24:24,443 INFO:成功处理 F:\去字幕\22\[Linkin.Park].mp4 的片段 0.0 - 768.575
2024-08-23 09:25:35,976 INFO:成功处理 F:\去字幕\22\[Linkin.Park].mp4 的片段 768.575 - 1537.15
2024-08-23 09:25:50,874 INFO:成功处理 F:\去字幕\22\[Madonna][麦当娜.mp4 的片段 0.0 - 1740.2166666666667
2024-08-23 09:26:19,665 INFO:成功处理 F:\去字幕\22\[Linkin.Park].mp4 的片段 1537.15 - 2305.7250000000004
2024-08-23 09:26:58,732 INFO:成功处理 F:\去字幕\22\[Linkin.Park].mp4 的片段 2305.7250000000004 - 3074.3
2024-08-23 09:26:58,732 INFO:F:\去字幕\22\[Linkin.Park].mp4 的处理已完成，耗时 221.96 秒
2024-08-23 09:27:10,082 INFO:成功处理 F:\去字幕\22\[Madonna][麦当娜.mp4 的片段 1740.2166666666667 - 3480.4333333333334
2024-08-23 09:28:00,140 INFO:成功处理 F:\去字幕\22\[Madonna][麦当娜.mp4 的片段 3480.4333333333334 - 5220.65
2024-08-23 09:28:51,578 INFO:成功处理 F:\去字幕\22\[Madonna][麦当娜.mp4 的片段 5220.65 - 6960.866666666667
2024-08-23 09:28:51,578 INFO:F:\去字幕\22\[Madonna][麦当娜.mp4 的处理已完成，耗时 334.81 秒
2024-08-23 09:28:51,579 INFO:开始处理：F:\去字幕\22\[Mariah.Carey玛丽亚・凯莉].mp4
2024-08-23 09:28:51,579 INFO:开始处理：F:\去字幕\22\[MC HotDog 色犬王.mp4
2024-08-23 09:29:49,549 INFO:成功处理 F:\去字幕\22\[Mariah.Carey玛丽亚・凯莉].mp4 的片段 0.0 - 1158.9916666666666
2024-08-23 09:30:48,134 INFO:成功处理 F:\去字幕\22\[Mariah.Carey玛丽亚・凯莉].mp4 的片段 1158.9916666666666 - 2317.983333333333
2024-08-23 09:30:51,187 INFO:成功处理 F:\去字幕\22\[MC HotDog 色犬王.mp4 的片段 0.0 - 2362.375
2024-08-23 09:31:48,286 INFO:成功处理 F:\去字幕\22\[Mariah.Carey玛丽亚・凯莉].mp4 的片段 2317.983333333333 - 3476.9749999999995
2024-08-23 09:32:46,717 INFO:成功处理 F:\去字幕\22\[Mariah.Carey玛丽亚・凯莉].mp4 的片段 3476.9749999999995 - 4635.966666666666
2024-08-23 09:32:46,717 INFO:F:\去字幕\22\[Mariah.Carey玛丽亚・凯莉].mp4 的处理已完成，耗时 235.14 秒
2024-08-23 09:32:50,358 INFO:成功处理 F:\去字幕\22\[MC HotDog 色犬王.mp4 的片段 2362.375 - 4724.75
2024-08-23 09:33:58,326 INFO:成功处理 F:\去字幕\22\[MC HotDog 色犬王.mp4 的片段 4724.75 - 7087.125
2024-08-23 09:35:04,907 INFO:成功处理 F:\去字幕\22\[MC HotDog 色犬王.mp4 的片段 7087.125 - 9449.5
2024-08-23 09:35:04,907 INFO:F:\去字幕\22\[MC HotDog 色犬王.mp4 的处理已完成，耗时 373.33 秒
2024-08-23 09:35:04,907 INFO:所有视频文件处理完成，总耗时 1705.79 秒
2024-08-26 09:20:31,516 INFO:开始处理：F:\去字幕\23\A-Lin - 2016.mp4
2024-08-26 09:20:31,517 INFO:开始处理：F:\去字幕\23\A-Lin - 2017.mp4
2024-08-26 09:21:20,949 INFO:成功处理 F:\去字幕\23\A-Lin - 2017.mp4 的片段 0.0 - 699.4051724137931
2024-08-26 09:22:25,877 INFO:成功处理 F:\去字幕\23\A-Lin - 2017.mp4 的片段 699.4051724137931 - 1398.8103448275863
2024-08-26 09:23:13,798 INFO:成功处理 F:\去字幕\23\A-Lin - 2017.mp4 的片段 1398.8103448275863 - 2098.2155172413795
2024-08-26 09:23:20,491 INFO:成功处理 F:\去字幕\23\A-Lin - 2016.mp4 的片段 0.0 - 2169.5
2024-08-26 09:24:08,984 INFO:成功处理 F:\去字幕\23\A-Lin - 2017.mp4 的片段 2098.2155172413795 - 2797.6206896551726
2024-08-26 09:24:08,984 INFO:F:\去字幕\23\A-Lin - 2017.mp4 的处理已完成，耗时 217.47 秒
2024-08-26 09:24:59,711 INFO:成功处理 F:\去字幕\23\A-Lin - 2016.mp4 的片段 2169.5 - 4339.0
2024-08-26 09:26:06,234 INFO:成功处理 F:\去字幕\23\A-Lin - 2016.mp4 的片段 4339.0 - 6508.5
2024-08-26 09:27:12,855 INFO:成功处理 F:\去字幕\23\A-Lin - 2016.mp4 的片段 6508.5 - 8678.0
2024-08-26 09:27:12,855 INFO:F:\去字幕\23\A-Lin - 2016.mp4 的处理已完成，耗时 401.34 秒
2024-08-26 09:27:12,856 INFO:开始处理：F:\去字幕\23\A-Lin - 2020.mp4
2024-08-26 09:27:12,857 INFO:开始处理：F:\去字幕\23\A-Lin - 2021.mp4
2024-08-26 09:27:37,104 INFO:成功处理 F:\去字幕\23\A-Lin - 2021.mp4 的片段 0.0 - 392.35833333333335
2024-08-26 09:28:10,312 INFO:成功处理 F:\去字幕\23\A-Lin - 2021.mp4 的片段 392.35833333333335 - 784.7166666666667
2024-08-26 09:28:45,587 INFO:成功处理 F:\去字幕\23\A-Lin - 2021.mp4 的片段 784.7166666666667 - 1177.075
2024-08-26 09:28:51,894 INFO:成功处理 F:\去字幕\23\A-Lin - 2020.mp4 的片段 0.0 - 1338.8916666666667
2024-08-26 09:29:22,855 INFO:成功处理 F:\去字幕\23\A-Lin - 2021.mp4 的片段 1177.075 - 1569.4333333333334
2024-08-26 09:29:22,855 INFO:F:\去字幕\23\A-Lin - 2021.mp4 的处理已完成，耗时 130.00 秒
2024-08-26 09:30:05,739 INFO:成功处理 F:\去字幕\23\A-Lin - 2020.mp4 的片段 1338.8916666666667 - 2677.7833333333333
2024-08-26 09:30:57,064 INFO:成功处理 F:\去字幕\23\A-Lin - 2020.mp4 的片段 2677.7833333333333 - 4016.675
2024-08-26 09:32:07,292 INFO:成功处理 F:\去字幕\23\A-Lin - 2020.mp4 的片段 4016.675 - 5355.566666666667
2024-08-26 09:32:07,292 INFO:F:\去字幕\23\A-Lin - 2020.mp4 的处理已完成，耗时 294.44 秒
2024-08-26 09:32:07,305 INFO:开始处理：F:\去字幕\23\刘若英x苏慧伦x丁当x白安 - 2023.mp4
2024-08-26 09:32:07,306 INFO:开始处理：F:\去字幕\23\白安 - 2019.mp4
2024-08-26 09:33:44,740 INFO:成功处理 F:\去字幕\23\白安 - 2019.mp4 的片段 0.0 - 1605.9137931034484
2024-08-26 09:33:56,479 INFO:成功处理 F:\去字幕\23\刘若英x苏慧伦x丁当x白安 - 2023.mp4 的片段 0.0 - 1633.3189655172414
2024-08-26 09:35:07,214 INFO:成功处理 F:\去字幕\23\白安 - 2019.mp4 的片段 1605.9137931034484 - 3211.8275862068967
2024-08-26 09:35:29,515 INFO:成功处理 F:\去字幕\23\刘若英x苏慧伦x丁当x白安 - 2023.mp4 的片段 1633.3189655172414 - 3266.637931034483
2024-08-26 09:36:36,420 INFO:成功处理 F:\去字幕\23\白安 - 2019.mp4 的片段 3211.8275862068967 - 4817.741379310345
2024-08-26 09:37:04,013 INFO:成功处理 F:\去字幕\23\刘若英x苏慧伦x丁当x白安 - 2023.mp4 的片段 3266.637931034483 - 4899.956896551725
2024-08-26 09:38:03,896 INFO:成功处理 F:\去字幕\23\白安 - 2019.mp4 的片段 4817.741379310345 - 6423.6551724137935
2024-08-26 09:38:03,908 INFO:F:\去字幕\23\白安 - 2019.mp4 的处理已完成，耗时 356.60 秒
2024-08-26 09:38:49,686 INFO:成功处理 F:\去字幕\23\刘若英x苏慧伦x丁当x白安 - 2023.mp4 的片段 4899.956896551725 - 6533.275862068966
2024-08-26 09:38:49,687 INFO:F:\去字幕\23\刘若英x苏慧伦x丁当x白安 - 2023.mp4 的处理已完成，耗时 402.38 秒
2024-08-26 09:38:49,688 INFO:开始处理：F:\去字幕\23\白安 - 2021.mp4
2024-08-26 09:39:24,799 INFO:成功处理 F:\去字幕\23\白安 - 2021.mp4 的片段 0.0 - 856.3916666666667
2024-08-26 09:40:02,991 INFO:成功处理 F:\去字幕\23\白安 - 2021.mp4 的片段 856.3916666666667 - 1712.7833333333333
2024-08-26 09:40:40,380 INFO:成功处理 F:\去字幕\23\白安 - 2021.mp4 的片段 1712.7833333333333 - 2569.175
2024-08-26 09:41:13,929 INFO:成功处理 F:\去字幕\23\白安 - 2021.mp4 的片段 2569.175 - 3425.5666666666666
2024-08-26 09:41:13,929 INFO:F:\去字幕\23\白安 - 2021.mp4 的处理已完成，耗时 144.24 秒
2024-08-26 09:41:13,931 INFO:所有视频文件处理完成，总耗时 1242.42 秒
2024-08-26 10:12:32,473 INFO:开始处理：F:\去字幕\24-演唱会单独剪\萧秉治&白安.mp4
2024-08-26 10:12:59,325 INFO:成功处理 F:\去字幕\24-演唱会单独剪\萧秉治&白安.mp4 的片段 0.0 - 973.25
2024-08-26 10:13:26,272 INFO:成功处理 F:\去字幕\24-演唱会单独剪\萧秉治&白安.mp4 的片段 973.25 - 1946.5
2024-08-26 10:13:54,643 INFO:成功处理 F:\去字幕\24-演唱会单独剪\萧秉治&白安.mp4 的片段 1946.5 - 2919.75
2024-08-26 10:14:22,191 INFO:成功处理 F:\去字幕\24-演唱会单独剪\萧秉治&白安.mp4 的片段 2919.75 - 3893.0
2024-08-26 10:14:22,191 INFO:F:\去字幕\24-演唱会单独剪\萧秉治&白安.mp4 的处理已完成，耗时 109.72 秒
2024-08-26 10:14:22,191 INFO:所有视频文件处理完成，总耗时 109.72 秒
2024-08-27 18:24:50,984 INFO:开始处理：E:\纪录片处理\去字幕\27\我住在这里的理由-第11集.mp4
2024-08-27 18:24:50,985 INFO:开始处理：E:\纪录片处理\去字幕\27\我住在这里的理由-第12集.mp4
2024-08-27 18:25:06,060 INFO:成功处理 E:\纪录片处理\去字幕\27\我住在这里的理由-第12集.mp4 的片段 0.0 - 210.19166666666666
2024-08-27 18:25:08,936 INFO:成功处理 E:\纪录片处理\去字幕\27\我住在这里的理由-第11集.mp4 的片段 0.0 - 277.94166666666666
2024-08-27 18:25:16,109 INFO:成功处理 E:\纪录片处理\去字幕\27\我住在这里的理由-第12集.mp4 的片段 210.19166666666666 - 420.3833333333333
2024-08-27 18:25:30,829 INFO:成功处理 E:\纪录片处理\去字幕\27\我住在这里的理由-第11集.mp4 的片段 277.94166666666666 - 555.8833333333333
2024-08-27 18:25:37,601 INFO:成功处理 E:\纪录片处理\去字幕\27\我住在这里的理由-第12集.mp4 的片段 420.3833333333333 - 630.575
2024-08-27 18:25:58,129 INFO:成功处理 E:\纪录片处理\去字幕\27\我住在这里的理由-第12集.mp4 的片段 630.575 - 840.7666666666667
2024-08-27 18:25:58,129 INFO:E:\纪录片处理\去字幕\27\我住在这里的理由-第12集.mp4 的处理已完成，耗时 67.14 秒
2024-08-27 18:25:58,619 INFO:成功处理 E:\纪录片处理\去字幕\27\我住在这里的理由-第11集.mp4 的片段 555.8833333333333 - 833.825
2024-08-27 18:26:05,557 INFO:成功处理 E:\纪录片处理\去字幕\27\我住在这里的理由-第11集.mp4 的片段 833.825 - 1111.7666666666667
2024-08-27 18:26:05,557 INFO:E:\纪录片处理\去字幕\27\我住在这里的理由-第11集.mp4 的处理已完成，耗时 74.57 秒
2024-08-27 18:26:05,559 INFO:开始处理：E:\纪录片处理\去字幕\27\我住在这里的理由-第13集.mp4
2024-08-27 18:26:05,559 INFO:开始处理：E:\纪录片处理\去字幕\27\我住在这里的理由-第14集.mp4
2024-08-27 18:26:28,629 INFO:成功处理 E:\纪录片处理\去字幕\27\我住在这里的理由-第13集.mp4 的片段 0.0 - 247.28333333333333
2024-08-27 18:26:29,105 INFO:成功处理 E:\纪录片处理\去字幕\27\我住在这里的理由-第14集.mp4 的片段 0.0 - 249.33333333333334
2024-08-27 18:26:47,612 INFO:成功处理 E:\纪录片处理\去字幕\27\我住在这里的理由-第13集.mp4 的片段 247.28333333333333 - 494.56666666666666
2024-08-27 18:26:48,922 INFO:成功处理 E:\纪录片处理\去字幕\27\我住在这里的理由-第14集.mp4 的片段 249.33333333333334 - 498.6666666666667
2024-08-27 18:27:11,705 INFO:成功处理 E:\纪录片处理\去字幕\27\我住在这里的理由-第13集.mp4 的片段 494.56666666666666 - 741.85
2024-08-27 18:27:13,563 INFO:成功处理 E:\纪录片处理\去字幕\27\我住在这里的理由-第14集.mp4 的片段 498.6666666666667 - 748.0
2024-08-27 18:27:34,893 INFO:成功处理 E:\纪录片处理\去字幕\27\我住在这里的理由-第13集.mp4 的片段 741.85 - 989.1333333333333
2024-08-27 18:27:34,893 INFO:E:\纪录片处理\去字幕\27\我住在这里的理由-第13集.mp4 的处理已完成，耗时 89.33 秒
2024-08-27 18:27:35,609 INFO:成功处理 E:\纪录片处理\去字幕\27\我住在这里的理由-第14集.mp4 的片段 748.0 - 997.3333333333334
2024-08-27 18:27:35,609 INFO:E:\纪录片处理\去字幕\27\我住在这里的理由-第14集.mp4 的处理已完成，耗时 90.05 秒
2024-08-27 18:27:35,613 INFO:开始处理：E:\纪录片处理\去字幕\27\我住在这里的理由-第19集.mp4
2024-08-27 18:27:35,613 INFO:开始处理：E:\纪录片处理\去字幕\27\我住在这里的理由-第23集.mp4
2024-08-27 18:27:56,934 INFO:成功处理 E:\纪录片处理\去字幕\27\我住在这里的理由-第23集.mp4 的片段 0.0 - 196.00833333333333
2024-08-27 18:28:00,401 INFO:成功处理 E:\纪录片处理\去字幕\27\我住在这里的理由-第19集.mp4 的片段 0.0 - 241.34166666666667
2024-08-27 18:28:10,583 INFO:成功处理 E:\纪录片处理\去字幕\27\我住在这里的理由-第23集.mp4 的片段 196.00833333333333 - 392.01666666666665
2024-08-27 18:28:19,149 INFO:成功处理 E:\纪录片处理\去字幕\27\我住在这里的理由-第19集.mp4 的片段 241.34166666666667 - 482.68333333333334
2024-08-27 18:28:25,885 INFO:成功处理 E:\纪录片处理\去字幕\27\我住在这里的理由-第23集.mp4 的片段 392.01666666666665 - 588.025
2024-08-27 18:28:36,590 INFO:成功处理 E:\纪录片处理\去字幕\27\我住在这里的理由-第19集.mp4 的片段 482.68333333333334 - 724.025
2024-08-27 18:28:40,379 INFO:成功处理 E:\纪录片处理\去字幕\27\我住在这里的理由-第23集.mp4 的片段 588.025 - 784.0333333333333
2024-08-27 18:28:40,379 INFO:E:\纪录片处理\去字幕\27\我住在这里的理由-第23集.mp4 的处理已完成，耗时 64.77 秒
2024-08-27 18:28:44,913 INFO:成功处理 E:\纪录片处理\去字幕\27\我住在这里的理由-第19集.mp4 的片段 724.025 - 965.3666666666667
2024-08-27 18:28:44,913 INFO:E:\纪录片处理\去字幕\27\我住在这里的理由-第19集.mp4 的处理已完成，耗时 69.30 秒
2024-08-27 18:28:44,913 INFO:开始处理：E:\纪录片处理\去字幕\27\我住在这里的理由-第31集.mp4
2024-08-27 18:28:44,913 INFO:开始处理：E:\纪录片处理\去字幕\27\我住在这里的理由-第35集.mp4
2024-08-27 18:29:03,494 INFO:成功处理 E:\纪录片处理\去字幕\27\我住在这里的理由-第35集.mp4 的片段 0.0 - 233.6
2024-08-27 18:29:05,170 INFO:成功处理 E:\纪录片处理\去字幕\27\我住在这里的理由-第31集.mp4 的片段 0.0 - 265.975
2024-08-27 18:29:25,990 INFO:成功处理 E:\纪录片处理\去字幕\27\我住在这里的理由-第35集.mp4 的片段 233.6 - 467.2
2024-08-27 18:29:31,603 INFO:成功处理 E:\纪录片处理\去字幕\27\我住在这里的理由-第31集.mp4 的片段 265.975 - 531.95
2024-08-27 18:29:51,839 INFO:成功处理 E:\纪录片处理\去字幕\27\我住在这里的理由-第35集.mp4 的片段 467.2 - 700.8
2024-08-27 18:29:58,242 INFO:成功处理 E:\纪录片处理\去字幕\27\我住在这里的理由-第31集.mp4 的片段 531.95 - 797.9250000000001
2024-08-27 18:30:04,239 INFO:成功处理 E:\纪录片处理\去字幕\27\我住在这里的理由-第35集.mp4 的片段 700.8 - 934.4
2024-08-27 18:30:04,239 INFO:E:\纪录片处理\去字幕\27\我住在这里的理由-第35集.mp4 的处理已完成，耗时 79.33 秒
2024-08-27 18:30:06,997 INFO:成功处理 E:\纪录片处理\去字幕\27\我住在这里的理由-第31集.mp4 的片段 797.9250000000001 - 1063.9
2024-08-27 18:30:06,997 INFO:E:\纪录片处理\去字幕\27\我住在这里的理由-第31集.mp4 的处理已完成，耗时 82.08 秒
2024-08-27 18:30:06,999 INFO:开始处理：E:\纪录片处理\去字幕\27\我住在这里的理由-第39集.mp4
2024-08-27 18:30:06,999 INFO:开始处理：E:\纪录片处理\去字幕\27\我住在这里的理由-第42集.mp4
2024-08-27 18:30:23,141 INFO:成功处理 E:\纪录片处理\去字幕\27\我住在这里的理由-第42集.mp4 的片段 0.0 - 215.66666666666666
2024-08-27 18:30:24,612 INFO:成功处理 E:\纪录片处理\去字幕\27\我住在这里的理由-第39集.mp4 的片段 0.0 - 232.9
2024-08-27 18:30:40,622 INFO:成功处理 E:\纪录片处理\去字幕\27\我住在这里的理由-第42集.mp4 的片段 215.66666666666666 - 431.3333333333333
2024-08-27 18:30:42,880 INFO:成功处理 E:\纪录片处理\去字幕\27\我住在这里的理由-第39集.mp4 的片段 232.9 - 465.8
2024-08-27 18:30:58,561 INFO:成功处理 E:\纪录片处理\去字幕\27\我住在这里的理由-第42集.mp4 的片段 431.3333333333333 - 647.0
2024-08-27 18:31:00,928 INFO:成功处理 E:\纪录片处理\去字幕\27\我住在这里的理由-第39集.mp4 的片段 465.8 - 698.7
2024-08-27 18:31:14,575 INFO:成功处理 E:\纪录片处理\去字幕\27\我住在这里的理由-第42集.mp4 的片段 647.0 - 862.6666666666666
2024-08-27 18:31:14,575 INFO:E:\纪录片处理\去字幕\27\我住在这里的理由-第42集.mp4 的处理已完成，耗时 67.58 秒
2024-08-27 18:31:16,237 INFO:成功处理 E:\纪录片处理\去字幕\27\我住在这里的理由-第39集.mp4 的片段 698.7 - 931.6
2024-08-27 18:31:16,237 INFO:E:\纪录片处理\去字幕\27\我住在这里的理由-第39集.mp4 的处理已完成，耗时 69.24 秒
2024-08-27 18:31:16,237 INFO:开始处理：E:\纪录片处理\去字幕\27\我住在这里的理由-第43集.mp4
2024-08-27 18:31:16,238 INFO:开始处理：E:\纪录片处理\去字幕\27\我住在这里的理由-第44集.mp4
2024-08-27 18:31:33,239 INFO:成功处理 E:\纪录片处理\去字幕\27\我住在这里的理由-第43集.mp4 的片段 0.0 - 257.875
2024-08-27 18:31:33,244 INFO:成功处理 E:\纪录片处理\去字幕\27\我住在这里的理由-第44集.mp4 的片段 0.0 - 256.3
2024-08-27 18:31:51,274 INFO:成功处理 E:\纪录片处理\去字幕\27\我住在这里的理由-第43集.mp4 的片段 257.875 - 515.75
2024-08-27 18:31:51,309 INFO:成功处理 E:\纪录片处理\去字幕\27\我住在这里的理由-第44集.mp4 的片段 256.3 - 512.6
2024-08-27 18:32:17,473 INFO:成功处理 E:\纪录片处理\去字幕\27\我住在这里的理由-第43集.mp4 的片段 515.75 - 773.625
2024-08-27 18:32:18,361 INFO:成功处理 E:\纪录片处理\去字幕\27\我住在这里的理由-第44集.mp4 的片段 512.6 - 768.9000000000001
2024-08-27 18:32:41,309 INFO:成功处理 E:\纪录片处理\去字幕\27\我住在这里的理由-第43集.mp4 的片段 773.625 - 1031.5
2024-08-27 18:32:41,309 INFO:E:\纪录片处理\去字幕\27\我住在这里的理由-第43集.mp4 的处理已完成，耗时 85.07 秒
2024-08-27 18:32:41,533 INFO:成功处理 E:\纪录片处理\去字幕\27\我住在这里的理由-第44集.mp4 的片段 768.9000000000001 - 1025.2
2024-08-27 18:32:41,534 INFO:E:\纪录片处理\去字幕\27\我住在这里的理由-第44集.mp4 的处理已完成，耗时 85.30 秒
2024-08-27 18:32:41,534 INFO:开始处理：E:\纪录片处理\去字幕\27\我住在这里的理由-第45集.mp4
2024-08-27 18:32:41,536 INFO:开始处理：E:\纪录片处理\去字幕\27\我住在这里的理由-第54集.mp4
2024-08-27 18:33:04,479 INFO:成功处理 E:\纪录片处理\去字幕\27\我住在这里的理由-第45集.mp4 的片段 0.0 - 242.59166666666667
2024-08-27 18:33:09,352 INFO:成功处理 E:\纪录片处理\去字幕\27\我住在这里的理由-第54集.mp4 的片段 0.0 - 304.3833333333333
2024-08-27 18:33:26,551 INFO:成功处理 E:\纪录片处理\去字幕\27\我住在这里的理由-第45集.mp4 的片段 242.59166666666667 - 485.18333333333334
2024-08-27 18:33:34,874 INFO:成功处理 E:\纪录片处理\去字幕\27\我住在这里的理由-第54集.mp4 的片段 304.3833333333333 - 608.7666666666667
2024-08-27 18:33:45,128 INFO:成功处理 E:\纪录片处理\去字幕\27\我住在这里的理由-第45集.mp4 的片段 485.18333333333334 - 727.775
2024-08-27 18:34:03,499 INFO:成功处理 E:\纪录片处理\去字幕\27\我住在这里的理由-第54集.mp4 的片段 608.7666666666667 - 913.15
2024-08-27 18:34:05,872 INFO:成功处理 E:\纪录片处理\去字幕\27\我住在这里的理由-第45集.mp4 的片段 727.775 - 970.3666666666667
2024-08-27 18:34:05,873 INFO:E:\纪录片处理\去字幕\27\我住在这里的理由-第45集.mp4 的处理已完成，耗时 84.34 秒
2024-08-27 18:34:11,910 INFO:成功处理 E:\纪录片处理\去字幕\27\我住在这里的理由-第54集.mp4 的片段 913.15 - 1217.5333333333333
2024-08-27 18:34:11,910 INFO:E:\纪录片处理\去字幕\27\我住在这里的理由-第54集.mp4 的处理已完成，耗时 90.37 秒
2024-08-27 18:34:11,911 INFO:开始处理：E:\纪录片处理\去字幕\27\我住在这里的理由-第6集.mp4
2024-08-27 18:34:11,911 INFO:开始处理：E:\纪录片处理\去字幕\27\我住在这里的理由第41集.mp4
2024-08-27 18:34:28,489 INFO:成功处理 E:\纪录片处理\去字幕\27\我住在这里的理由-第6集.mp4 的片段 0.0 - 219.64166666666668
2024-08-27 18:34:29,450 INFO:成功处理 E:\纪录片处理\去字幕\27\我住在这里的理由第41集.mp4 的片段 0.0 - 232.78333333333333
2024-08-27 18:34:43,185 INFO:成功处理 E:\纪录片处理\去字幕\27\我住在这里的理由-第6集.mp4 的片段 219.64166666666668 - 439.28333333333336
2024-08-27 18:34:45,488 INFO:成功处理 E:\纪录片处理\去字幕\27\我住在这里的理由第41集.mp4 的片段 232.78333333333333 - 465.56666666666666
2024-08-27 18:35:00,614 INFO:成功处理 E:\纪录片处理\去字幕\27\我住在这里的理由-第6集.mp4 的片段 439.28333333333336 - 658.9250000000001
2024-08-27 18:35:03,216 INFO:成功处理 E:\纪录片处理\去字幕\27\我住在这里的理由第41集.mp4 的片段 465.56666666666666 - 698.35
2024-08-27 18:35:14,553 INFO:成功处理 E:\纪录片处理\去字幕\27\我住在这里的理由-第6集.mp4 的片段 658.9250000000001 - 878.5666666666667
2024-08-27 18:35:14,553 INFO:E:\纪录片处理\去字幕\27\我住在这里的理由-第6集.mp4 的处理已完成，耗时 62.64 秒
2024-08-27 18:35:16,153 INFO:成功处理 E:\纪录片处理\去字幕\27\我住在这里的理由第41集.mp4 的片段 698.35 - 931.1333333333333
2024-08-27 18:35:16,153 INFO:E:\纪录片处理\去字幕\27\我住在这里的理由第41集.mp4 的处理已完成，耗时 64.24 秒
2024-08-27 18:35:16,154 INFO:开始处理：E:\纪录片处理\去字幕\27\我住在这里的理由第55集.mp4
2024-08-27 18:35:16,154 INFO:开始处理：E:\纪录片处理\去字幕\27\比尔・贝利的丛林英雄-华莱士在婆罗洲.mp4
2024-08-27 18:35:35,992 INFO:成功处理 E:\纪录片处理\去字幕\27\我住在这里的理由第55集.mp4 的片段 0.0 - 285.45
2024-08-27 18:36:01,593 INFO:成功处理 E:\纪录片处理\去字幕\27\我住在这里的理由第55集.mp4 的片段 285.45 - 570.9
2024-08-27 18:36:14,665 INFO:成功处理 E:\纪录片处理\去字幕\27\比尔・贝利的丛林英雄-华莱士在婆罗洲.mp4 的片段 0.0 - 742.4833333333333
2024-08-27 18:36:26,984 INFO:成功处理 E:\纪录片处理\去字幕\27\我住在这里的理由第55集.mp4 的片段 570.9 - 856.3499999999999
2024-08-27 18:36:53,024 INFO:成功处理 E:\纪录片处理\去字幕\27\我住在这里的理由第55集.mp4 的片段 856.3499999999999 - 1141.8
2024-08-27 18:36:53,025 INFO:E:\纪录片处理\去字幕\27\我住在这里的理由第55集.mp4 的处理已完成，耗时 96.87 秒
2024-08-27 18:37:00,095 INFO:成功处理 E:\纪录片处理\去字幕\27\比尔・贝利的丛林英雄-华莱士在婆罗洲.mp4 的片段 742.4833333333333 - 1484.9666666666667
2024-08-27 18:37:15,466 INFO:成功处理 E:\纪录片处理\去字幕\27\比尔・贝利的丛林英雄-华莱士在婆罗洲.mp4 的片段 1484.9666666666667 - 2227.45
2024-08-27 18:37:30,814 INFO:成功处理 E:\纪录片处理\去字幕\27\比尔・贝利的丛林英雄-华莱士在婆罗洲.mp4 的片段 2227.45 - 2969.9333333333334
2024-08-27 18:37:30,814 INFO:E:\纪录片处理\去字幕\27\比尔・贝利的丛林英雄-华莱士在婆罗洲.mp4 的处理已完成，耗时 134.66 秒
2024-08-27 18:37:30,814 INFO:所有视频文件处理完成，总耗时 759.83 秒
